<?xml version="1.0" encoding="UTF-8"?>
<svg id="Layer_1" data-name="Layer 1" xmlns="http://www.w3.org/2000/svg" version="1.1" viewBox="0 0 300 347.4">
  <defs>
    <style>
      .cls-1 {
        fill: #fbe832;
      }

      .cls-1, .cls-2, .cls-3, .cls-4, .cls-5, .cls-6, .cls-7, .cls-8, .cls-9 {
        stroke-width: 0px;
      }

      .cls-2 {
        fill: #03e19a;
      }

      .cls-3 {
        fill: #020302;
      }

      .cls-4 {
        fill: #02da96;
      }

      .cls-5 {
        fill: #02e29b;
      }

      .cls-6 {
        fill: #03d996;
      }

      .cls-7 {
        fill: #fce302;
      }

      .cls-8 {
        fill: #03e19b;
      }

      .cls-9 {
        fill: #030303;
      }
    </style>
  </defs>
  <path class="cls-9" d="M300,150c-.4,67.2-43.8,124.7-108.5,143.5-2.2.6-3.6,1.8-4.8,3.7-10.1,15.3-20.3,30.5-30.5,45.7-4.1,6.1-8.3,6.1-12.4,0-10.2-15.2-20.4-30.4-30.5-45.7-1.3-2-3-3-5.2-3.7C47.9,273.7,11.3,232.9,1.7,170.4-9.4,97.9,34.9,29.2,104.9,7c83-26.3,171.7,24.2,191.3,108.9,2.6,11.2,4,22.5,3.9,34.1ZM151.5,12.3c-.5,0-1,0-1.5,0-14.6-.4-28.9,2-42.7,6.7C39.4,41.7-.3,109.6,15.3,178.7c12,53,45.2,87.5,97.4,103.5,4.3,1.3,7.4,3.4,9.8,7.2,8.3,12.9,16.9,25.6,25.5,38.3.5.8.6,2.8,2.5,1.6,9.2-13.7,18.5-27.5,27.7-41.3,1.8-2.8,4-4.4,7.3-5.2,68-17.8,112.3-85.5,100.5-154.7-8-46.8-33.9-81.2-76.6-102.4-15.5-7.7-32.1-12.2-49.6-12.9-2.8-.9-5.6-.6-8.5-.5Z"/>
  <path class="cls-4" d="M150.6,329.3c-1.9,1.2-2-.8-2.5-1.6-8.6-12.7-17.2-25.4-25.5-38.3-2.5-3.8-5.5-5.9-9.8-7.2-52.2-16-85.4-50.6-97.4-103.5C-.3,109.6,39.4,41.7,107.3,18.9c13.8-4.6,28-7,42.7-6.7,0,3.9,0,7.8,0,11.7-1.5,0-3,.1-4.5.2-18.2.8-35.6,4.9-51.8,13.3C42.8,63.7,16.3,115.9,26.3,172.2c7.5,42,31.7,72.1,69.7,91.1,16.9,8.4,35.1,11.9,53.9,12.3,0,16.6,0,33.2,0,49.8,0,1.3-.5,2.7.6,3.9Z"/>
  <path class="cls-5" d="M150,24c0-3.9,0-7.8,0-11.7.5,0,1,0,1.5,0,2.8,1.2,5.6.4,8.5.5,17.5.7,34,5.2,49.6,12.9,42.7,21.3,68.6,55.6,76.6,102.4,11.8,69.2-32.6,136.8-100.5,154.7-3.3.9-5.5,2.5-7.3,5.2-9.2,13.8-18.4,27.5-27.7,41.3-1.1-1.1-.6-2.6-.6-3.9,0-16.6,0-33.2,0-49.8,6.9-.2,13.7-.6,20.5-1.8,65.1-11,110.4-68.9,104.7-134.7-3.7-43.1-25.1-75.7-62.1-98-19.3-11.7-40.7-16.7-63.2-17.2Z"/>
  <path class="cls-4" d="M160,12.8c-2.8,0-5.7.7-8.5-.5,2.8,0,5.7-.4,8.5.5Z"/>
  <path class="cls-9" d="M150,24c22.5.5,43.8,5.5,63.2,17.2,36.9,22.3,58.3,54.9,62.1,98,5.7,65.7-39.6,123.6-104.7,134.7-6.8,1.1-13.6,1.6-20.5,1.8-18.8-.4-37-3.9-53.9-12.3-38.1-19-62.3-49.1-69.7-91.1-10.1-56.3,16.5-108.5,67.4-134.8,16.2-8.4,33.6-12.4,51.8-13.3,1.5,0,3-.1,4.5-.2ZM150,263.4c6.7.4,13.2-.4,19.7-1.6,83.1-14.8,122.1-111.1,72.1-179.1-22.5-30.7-53.6-46.1-91.8-46.5-8-.4-16,.7-23.8,2.4C45.4,56,9.2,150.4,58.1,216.9c22.6,30.6,53.6,46,91.9,46.5Z"/>
  <path class="cls-3" d="M150,227.7c-18.1,0-36.2,0-54.3-.1-7.5,0-9.9-3.9-6.6-10.6,2.4-4.8,5.4-9.3,8.9-13.3,6-7,13.5-10.1,22.7-7.6,1.6.4,2.7.2,4-1,4.9-4.7,10.7-7.8,17.3-9.2,1.5-.3,2.1-.7,2.1-2.3,0-4.4,0-8.7,0-13.3-11.8,2.4-22.6.6-32.3-6.1-10.3-7.2-16-17.2-17.2-29.7-.4-3.6,1.1-5.9,4.4-7.3,14.7-6.2,28.4-4.8,41.4,4.5,1.1.8,2.1,1.6,3.7,2.9,0-5.1,0-9.6,0-14.1,0-2.4-1.8-1.2-2.7-1-15.4,2.3-28-2.6-38-14.4-5.2-6.1-7.9-13.4-8.8-21.4-.4-3.9,1-6.3,4.7-7.9,16.8-7.5,36.1-3.1,47.8,11.1.7.9,1.4,1.7,2.2,2.5,1.2,2.5,1.8.3,2.3-.4,6.9-9.3,16-14.8,27.4-16.5,8-1.2,15.6.3,22.9,3.7,3,1.4,3.9,3.8,3.8,7-1,22.2-23.6,40.3-45.6,36.4-3.6-.6-4.2.2-3.9,3.5.3,3.7,0,7.4,0,11.7,6.3-5.6,12.9-9.1,20.5-10.5,8.5-1.5,16.6-.6,24.5,2.9,3.2,1.4,4.7,3.7,4.5,7.3-1,21.3-22.1,39.2-43.4,36.8-2-.2-4-.5-6.2-.7,0,4.6,0,9,0,13.5,0,1.2.5,1.7,1.7,1.9,6.9,1.4,12.9,4.6,17.9,9.5,1.2,1.2,2.3,1.1,3.7.8,9.2-2.4,16.7.7,22.7,7.6,3.8,4.3,6.9,9.2,9.4,14.3,2.6,5.3,0,9.6-6,9.6-18.5,0-37,0-55.5.1ZM149.9,197c-8.2-.2-14.6,3.4-19.7,9.6-3,3.7-5.1,4.3-9,2.4-7-3.4-11.5-2.8-16.8,6.5h91.5c-5.9-8.5-9.6-10-16.3-7-5.3,2.4-6.6,2-10.3-2.3-5.1-6-11.4-9.5-19.5-9.2ZM134.3,107.9c2,0,4-.2,5.9-.5,3-.4,3.3-1.6,2.4-4.3-4.5-13.5-18.9-21.7-32.7-18.6-2.7.6-3.1,1.6-2.3,4.1,3.7,11.4,14.5,19.3,26.6,19.3ZM165.5,107.9c12.3,0,23.3-8,26.9-19.5.7-2.2.5-3.3-2.1-3.9-11.7-2.7-24.4,2.7-30.4,13.3-1.5,2.6-4,5.7-2.7,8.1,1.3,2.4,5.3,1.8,8.3,1.9ZM165,159.4c12.4,0,23.4-8,27.3-19.3.9-2.7.3-3.8-2.4-4.3-11.6-2.4-24.1,3-30.1,13.5-1.5,2.6-4,5.8-2.6,8.2,1.4,2.4,5.4,1.6,7.9,2ZM115.4,135.3c-1.1,0-3.1.2-5,.4-2.9.3-3.7,1.5-2.6,4.5,4.7,13.5,18.9,21.5,32.8,18.5,2.2-.5,3-1.3,2.2-3.8-3.6-11.4-14.2-19.4-27.4-19.6Z"/>
  <path class="cls-6" d="M134.3,107.9c-12.1,0-22.9-8-26.6-19.3-.8-2.5-.4-3.5,2.3-4.1,13.7-3.1,28.1,5.1,32.7,18.6.9,2.7.6,3.8-2.4,4.3-2,.3-4,.4-5.9.5Z"/>
  <path class="cls-2" d="M165.5,107.9c-3,0-7,.5-8.3-1.9-1.3-2.4,1.2-5.6,2.7-8.1,6.1-10.6,18.8-16,30.4-13.3,2.6.6,2.8,1.7,2.1,3.9-3.6,11.5-14.6,19.5-26.9,19.5Z"/>
  <path class="cls-8" d="M165,159.4c-2.4-.4-6.5.5-7.9-2-1.3-2.4,1.2-5.6,2.6-8.2,6-10.5,18.5-16,30.1-13.5,2.7.6,3.3,1.6,2.4,4.3-3.9,11.3-14.8,19.3-27.3,19.3Z"/>
  <path class="cls-6" d="M115.4,135.3c13.2.3,23.8,8.2,27.4,19.6.8,2.5,0,3.3-2.2,3.8-13.9,3-28.1-5-32.8-18.5-1-3-.2-4.2,2.6-4.5,2-.2,4-.4,5-.4Z"/>
  <path class="cls-1" d="M149.9,197c8.1-.3,14.4,3.2,19.5,9.2,3.7,4.3,5,4.7,10.3,2.3,6.7-3,10.4-1.5,16.3,7h-46c0-6.2,0-12.3,0-18.5Z"/>
  <path class="cls-7" d="M149.9,197c0,6.2,0,12.3,0,18.5h-45.5c5.2-9.3,9.7-9.9,16.8-6.5,3.9,1.9,6,1.3,9-2.4,5.1-6.2,11.5-9.8,19.7-9.6Z"/>
</svg>