<?xml version="1.0" encoding="utf-8"?>
<!-- Generator: Adobe Illustrator 28.2.0, SVG Export Plug-In . SVG Version: 6.00 Build 0)  -->
<svg version="1.1" id="Layer_1" xmlns="http://www.w3.org/2000/svg" xmlns:xlink="http://www.w3.org/1999/xlink" x="0px" y="0px"
	 viewBox="0 0 245.04 214.04" style="enable-background:new 0 0 245.04 214.04;" xml:space="preserve">
<style type="text/css">
	.st0{opacity:0.21;fill:#3B773B;enable-background:new    ;}
	.st1{clip-path:url(#SVGID_00000024692915418002541370000013873613085572424862_);}
	.st2{fill:#27896D;}
	.st3{fill:#1F2224;}
	.st4{fill:#282C2E;}
	.st5{fill:#257B62;}
	.st6{fill:#1D614D;}
	.st7{fill:#404344;}
	.st8{fill:#2D3132;}
	.st9{fill:#256552;}
	.st10{fill:#242729;}
	.st11{fill:#1F6C57;}
	.st12{fill:#48484A;}
	.st13{fill:#B6B7B6;}
	.st14{fill:#505252;}
	.st15{fill:#565857;}
	.st16{fill:#666868;}
</style>
<g id="Group_37651" transform="translate(0)">
	<g id="Group_2829" transform="translate(0 0)">
		<g id="Group_2000">
			
				<ellipse id="Ellipse_16" transform="matrix(0.438 -0.899 0.899 0.438 -47.2785 174.1347)" class="st0" cx="115.63" cy="124.88" rx="79.15" ry="122.67"/>
		</g>
		<g id="Group_37647" transform="translate(15.727 0)">
			<g>
				<defs>
					<rect id="SVGID_1_" x="12.52" width="216.79" height="189.09"/>
				</defs>
				<clipPath id="SVGID_00000049205754970399406680000009386709074583860887_">
					<use xlink:href="#SVGID_1_"  style="overflow:visible;"/>
				</clipPath>
				<g id="Group_37649" style="clip-path:url(#SVGID_00000049205754970399406680000009386709074583860887_);">
					<path id="Path_30930" class="st2" d="M52.64,26.68c4.08-2.38,8.27-4.54,12.57-6.5c13.08-6.6,26.2-13.11,39.29-19.68
						c1.01-0.63,2.28-0.67,3.33-0.1c17.54,8.82,35.09,17.61,52.65,26.38c0.38,0.22,0.75,0.47,1.1,0.73
						c-0.33,0.98-1.28,1.17-2.05,1.56c-12.77,6.38-25.53,12.75-38.29,19.12c-0.72,0.53-1.59,0.81-2.48,0.81c0-0.89-0.06-1.78,0-2.66
						c0.08-1.22-0.29-2.15-1.62-2.11c-1.01-0.11-1.91,0.62-2.02,1.63c-0.02,0.16-0.01,0.33,0.01,0.49c0.06,1.77,0,3.55,0,5.32
						c-2.47,0.29-4.28,2.15-6.63,2.73c-8.08-4.04-16.15-8.07-24.23-12.09c-4.44-2.2-8.93-4.33-13.35-6.57
						c-6.06-3.07-12.04-6.3-18.28-9.02"/>
					<path id="Path_30931" class="st2" d="M161.03,79.26c6.96,4.3,13.92,8.56,20.85,12.92c1.7,1.21,3.51,2.25,5.4,3.11l9.43,5.86
						l3.46,2.32c2.06,2.09,4.01,4.29,5.82,6.6l0.5,0.45l-0.05,0.05c0.07,0.51,0.22,1,0.44,1.47c0.89,1.28,0.39,1.87-0.86,2.48
						c-8.98,4.44-17.95,8.93-26.89,13.45c-1.17,0.63-2.48,0.96-3.81,0.97l-0.43-0.25c-0.06-0.43-0.17-0.86-0.34-1.26
						c-2.14-3.82-5.17-7.07-8.83-9.46c-11.35-7.02-22.71-14.03-34.07-21.02c-3.07-2.17-6.34-4.05-9.77-5.6
						c0-1.77-0.01-3.54-0.03-5.31c0.88-0.37,1.78-0.7,2.64-1.13c7.69-3.83,15.42-7.64,23.08-11.56c1.34-0.83,3.05-0.73,4.29,0.24
						c2.2,1.47,4.57,2.72,6.87,4.06l2.29,1.64"/>
					<path id="Path_30932" class="st3" d="M175.34,128.91c1.33-0.01,2.64-0.34,3.81-0.97c8.94-4.51,17.91-9,26.89-13.45
						c1.25-0.62,1.75-1.21,0.86-2.48c-0.22-0.46-0.37-0.96-0.44-1.47c0.88-0.11,1.77-0.12,2.65-0.04c2.01,0.38,4.02-0.66,4.88-2.52
						c0.47-0.84,1.16-1.54,1.99-2.01c1.06,0.91,1.99,1.96,2.76,3.11c-0.28,0.09-0.67,0.1-0.81,0.29c-2.27,2.97-4.4,6.12-9,4.69
						c-0.73-0.22-0.91,0.37-0.64,0.95c1.12,2.97,1.84,6.09,2.13,9.25c0.45-1.28,1.25-1,1.89-1.47c-0.44-0.63-0.81-1.25-1.28-1.81
						c-0.54-0.65-0.37-1.04,0.33-1.35c1.91-0.72,3.77-1.57,5.56-2.56c1.73-1.1,4.52-0.99,4.87-3.85c4.94,6.64,7.58,14.71,7.5,22.98
						c0.2,6.21-3.64,11.85-9.5,13.93c-0.71-0.6,0.07-1.72-0.79-2.26c-1.43-0.9-2.69-1.83-1.83-3.88c0.26-0.47,0.08-1.06-0.39-1.32
						c-0.14-0.07-0.29-0.11-0.44-0.12c-1.25-0.45-2.68-0.75-2.2-2.65c0.85-0.16,0.67,1.07,1.56,1.1c0.09-1.1,0.85-2.39-1.21-2.43
						l1.4-0.89c0.73,0,1.47-0.13,1.26-1.07c-0.49-2.68-1.26-5.31-2.28-7.84c-0.27-0.62-0.82-0.51-1.23,0
						c-1.23-0.45-2.56-0.71-3.25-2.56c-0.41,1.78,0.52,2.74,0.63,3.88c-0.82,0.69-0.39,1.63-0.48,2.46
						c0.19,2.15,0.04,4.33-0.43,6.44c-0.74,0.09-1.44,0.36-2.04,0.78c-7.27,3.62-14.5,7.33-21.82,10.84
						c-2.42,1.54-5.05,2.73-7.8,3.54c-0.74,0.07-1.47-0.24-1.92-0.83c1.38,0,2.03-0.63,1.93-2.05c-0.19-1.46-0.23-2.93-0.15-4.4
						c0.68-6.15-0.35-12.37-2.97-17.97 M198.89,130.23c-0.02,3.02,0.61,3.84,2.37,3.07c2.36-1.03,4.66-2.23,6.94-3.44
						c1.1-1.45,1.37-3.38,0.7-5.07c-1.15-1.42-2.43-0.45-3.55,0.06c-1.53,0.7-2.93,1.67-4.48,2.36
						C199.39,127.86,198.55,128.75,198.89,130.23 M189.77,136.89c0-3.18-0.81-3.66-3.48-2.37c-1.86,0.91-3.73,1.8-5.55,2.79
						c-1.75,1.65-1.89,4.38-0.32,6.2c0.45,0.34,0.68,0.17,1.12-0.08c1.95-1.19,3.96-2.27,6.04-3.22
						C189.27,139.48,190.08,138.48,189.77,136.89"/>
					<path id="Path_30933" class="st4" d="M53.22,64.96c0.53-0.63,0.76-1.46,0.62-2.28c0-8.74-0.01-17.47-0.03-26.21l0.16,0.06
						l0.16-0.02h0.56c0.82,0.08,1.6,0.36,2.27,0.83c10.28,5.13,20.56,10.27,30.84,15.41c6.62,3.32,13.21,6.7,19.81,10.06
						c-0.12,1.53-0.12,1.53,1.71,1.36c0.03,0.29,0.07,0.58,0.1,0.86c-1.13,0.04-2.61,0.04-2.2,1.65c0.22,2.18,0.18,4.39-0.12,6.56
						c0.12,8.66,0.05,17.32,0.05,25.98c0,6.51,0.03,13.03-0.02,19.54c0,1.4,0.87,2.93-0.39,4.21h-0.45
						c-2.79-0.73-5.74,0.35-7.41,2.71c-0.08,0.04-0.14,0.11-0.18,0.19l-4.96-2.4c-0.41-2.25,0.9-4.49,0.08-6.75
						c-1.99-1.83-3.6,0.26-5.39,0.52c0-2.25-0.01-4.5-0.03-6.75c0.12-0.88-0.15-1.78-0.73-2.45c-1.67-2.61-3.23-5.29-4.89-7.91
						c-3.27-5.17-6.18-10.57-9.89-15.47c-0.39-0.84-1.25-1.01-1.96-1.37c-5.1-2.56-10.19-5.18-15.35-7.64
						c-1.33-0.48-2.16-1.81-2-3.22c0.33-2.48,0.21-5-0.37-7.44 M94.62,115.01c2.78,1.83,5.86,3.01,8.79,4.54
						c1.24,0.65,1.55,0.05,1.53-1.1c-0.03-2.93-0.02-5.88-0.03-8.83c0-2.37,0-4.74,0-7.11l-0.02-10.24V68.64
						c0-1.1,0.03-2.22,0.05-3.33c0.03-0.85-0.05-1.59-0.97-2.03c-5.2-2.48-10.2-5.37-15.55-7.56c-1.5-1.11-3.16-2-4.91-2.63
						c-1.97-1.02-3.97-2-5.91-3.09c-0.93-0.52-1.19-0.23-1.18,0.69c0.05,3.78,0.09,7.56,0.14,11.34l-0.18,0.84l-3.46,1.29h-0.05
						c0.06-2.36,0.27-4.72,0.15-7.06c-0.24-2.28-0.24-4.58,0.02-6.86c0.4-1.4-0.38-2.87-1.76-3.34c-3.32-1.63-6.61-3.31-9.89-5.04
						c-1.43-0.75-2.01-0.75-2,1.15c0.07,8.83,0.03,17.65,0.04,26.48c0,0.63-0.22,1.36,0.47,1.83c4.36,2.1,8.55,4.54,13.06,6.35
						c1.15,0.55,1.97,1.76,3.43,1.67l1.78,2.23c2.2,3.66,4.37,7.33,6.6,10.96c3.09,4.99,6.23,9.96,9.36,14.94
						c-0.11,2.52,0.05,5.05,0.48,7.54"/>
					<path id="Path_30934" class="st5" d="M54.13,36.51l-0.16,0.02l-0.16-0.06c-2.29-3.03-0.98-6.5-1.18-9.79
						c6.23,2.73,12.22,5.95,18.28,9.02c4.43,2.24,8.91,4.36,13.35,6.57c8.09,4.02,16.16,8.05,24.23,12.09
						c-0.06,0.96-0.06,1.93,0,2.89c0.19,1.71-0.62,3.53,0.54,5.13c-0.37,0.52-0.89,0.47-1.42,0.39c-6.6-3.36-13.19-6.73-19.81-10.06
						c-10.26-5.16-20.54-10.29-30.84-15.41c-0.67-0.47-1.46-0.75-2.27-0.83c-0.19-0.21-0.37-0.48-0.56,0"/>
					<path id="Path_30935" class="st2" d="M53.22,64.96c0.58,2.44,0.7,4.96,0.37,7.44c-0.16,1.41,0.66,2.74,1.99,3.22
						c5.16,2.47,10.26,5.07,15.35,7.64c0.71,0.37,1.57,0.54,1.96,1.37c-4.34,1.8-8.56,3.91-12.61,6.29c-1.83-0.9-3.61-1.91-5.5-2.66
						c-1.88-0.75-3.46-2.52-5.77-2.31c-1.26-1.55-3.1-2.52-5.09-2.68c-2.41-1.93-5.14-3.43-8.06-4.44
						c-0.58-0.55-1.34-0.87-2.14-0.91c-0.78-1.18-2.32-1.16-3.3-2.06c0.29-0.59,0.89-0.76,1.41-1.01
						c6.72-3.27,13.28-6.87,20.15-9.83l1.22-0.05"/>
					<path id="Path_30936" class="st3" d="M165.21,164.95c0.12,3.52-0.51,7.03-1.83,10.29c-1.33,2.81-3.65,5.02-6.51,6.23
						c-2.81,1.19-5.35,2.98-8.24,4.03c-0.22-0.29-0.37-0.68-0.66-0.84c-1.37-0.73-1.47-1.67-0.26-2.6c0.52-0.3,1.13-0.38,1.71-0.22
						c1.1,0.89,1.41,0,1.69-0.77c0.87-2.18,1.23-4.53,1.04-6.87c0.15-1.77,0.39-3.54,0.71-5.29c0-2.59-0.66-5.13-1.92-7.39
						c-0.34-0.62-0.69-1.13-1.47-1.12c-1.85,0.92-2.31-0.3-2.71-1.72c-0.11-0.37-0.52-0.67-0.79-1c-0.07-1.06,1.41-2.02,0.37-3.08
						c-0.98-1-0.41-1.8,0.04-2.67c4.22-1.17,8.16-3.15,11.63-5.83c1.42,1.21,1.9,3.06,3.03,4.46l0.47,0.5l-0.04,0.04
						c0,0.59,0.16,1.17,0.47,1.66c1.83,3.83,2.95,7.96,3.3,12.19"/>
					<path id="Path_30937" class="st3" d="M86.18,134.04c-1.76,0.88-2.28,2.93-3.86,4.03c-4.4,2.86-9.07,5.27-13.94,7.19
						c0.05-1.1-1.01-0.86-1.55-1.24c-0.39-0.27-1.22-0.44-0.76-1.03c0.79-1.02,1.28-2.66,3.15-2.16c1.32,1.02,1.83,0.15,2.22-0.95
						c0.97-2.56,1.44-5.28,1.38-8.01v-4.88c0.97-0.09,0.97-0.8,0.86-1.47c-0.47-3.12-1.29-6.18-2.44-9.12
						c-0.37-0.9-0.99-2.03-2.43-1.43c-0.14,0.04-0.27,0.07-0.41,0.09c-0.02-1.8-0.86-3.48-2.29-4.58l0.15-0.82
						c0.48-0.3,2.17,0.42,1.2-1.1c-1.1-1.19-1.02-3.04,0.17-4.14c0.12-0.11,0.24-0.2,0.37-0.29c0.62,0.52,1.13,1.16,1.5,1.88
						c2.14,3.43,4.29,6.86,6.44,10.28c0,2.93,0.07,5.9-0.04,8.84c-0.07,1.97,0.56,1.83,1.99,1.05c2.7-1.47,5.5-2.71,8.27-4.06
						c0,3.97,0.01,7.95,0.02,11.91"/>
					<path id="Path_30938" class="st6" d="M118.76,49c0.89,0.01,1.76-0.28,2.48-0.81c12.76-6.37,25.52-12.75,38.28-19.14
						c0.77-0.38,1.72-0.58,2.05-1.56c0.77,0.14,0.79,0.71,0.78,1.33c0,2.05-0.11,4.1,0.03,6.14c0.09,1.17-0.73,1.47-1.33,2.03
						c-1.26,0.43-2.47,0.98-3.62,1.64c-2.04,1.3-4.31,2.23-6.68,2.73c0.68-1.04,1.8-1.76,2.14-3.04c0.27-1.02,0.5-2.09-0.47-2.85
						c-0.97-0.76-1.96-0.28-2.83,0.33c-0.99,0.66-1.75,1.6-2.18,2.71c-0.91,2.44,0.09,3.59,2.74,3.14c0,1.01-0.95,1.05-1.54,1.35
						c-9.25,4.66-18.51,9.3-27.78,13.92c-0.62,0.41-1.35,0.63-2.1,0.62L118.76,49 M121.03,50.47c-0.57,0.57-1.09,1.18-1.56,1.83
						c-0.58,0.81-0.58,1.9,0,2.71c0.44,0.65,1.28,0.88,1.99,0.54c1.91-0.69,3.28-2.38,3.55-4.4c0.11-0.85,0-1.7-0.92-2.06
						c-0.74-0.42-1.67-0.16-2.09,0.58c-0.04,0.07-0.08,0.15-0.11,0.23c-0.37,0.02-0.7,0.23-0.88,0.56 M161.11,32.58
						c0.03-2.54-0.12-2.64-2.29-1.58c-1.28,0.58-2.52,1.22-3.74,1.93c-1.47,0.91-0.96,2.56-0.58,3.59c0.43,1.18,1.47,0,2.2-0.27
						c1.03-0.4,1.97-1.03,2.99-1.44C160.81,34.37,161.36,33.67,161.11,32.58"/>
					<path id="Path_30939" class="st5" d="M165.21,164.94c-0.35-4.23-1.46-8.36-3.3-12.19c-0.31-0.5-0.48-1.08-0.47-1.66
						c0.58-0.08,1.17,0.06,1.66,0.39c4.97,2.82,10.15,5.22,15.35,7.57c2.84,1.72,5.81,3.23,8.87,4.53c0,1.9,0.01,3.81,0.04,5.71
						c-1.1-0.19-1.96-1.05-3.13-0.93c-0.31-0.18-0.63-0.34-0.96-0.48c-1.58-0.52-3.26-2.53-4.48-1.66
						c-1.08,0.77-0.23,3.18-0.34,4.86c-3.78-1.51-7.45-3.28-10.99-5.3c-0.68-0.44-1.45-0.73-2.25-0.84"/>
					<path id="Path_30940" class="st6" d="M187.36,169.28c0-1.9-0.01-3.81-0.04-5.71c0.36-0.1,0.7-0.22,1.04-0.37
						c10.21-5.11,20.42-10.22,30.63-15.34c0.86,0.55,0.09,1.66,0.79,2.26c0.47,3.52-1.73,4.87-4.53,6.2
						c-8.49,4.03-16.85,8.36-25.28,12.52C189.2,169.21,188.39,170.16,187.36,169.28"/>
					<path id="Path_30941" class="st5" d="M86.18,134.04c0-3.97-0.01-7.94-0.02-11.91c0.26-1.19-0.42-2.51,0.48-3.61
						c0.56,0.65,1.4,0.98,2.25,0.9c-0.44,1.97-1.3,3.96,0.43,5.77c1.23,1.95,3.5,2.13,5.31,3.08c3.99,2.1,4.03,2.05,4.07-2.42
						c0.03-0.08,0.09-0.15,0.17-0.19h2.51c-0.33,0.66-0.5,1.38-0.48,2.12c-0.23,2.33,0.3,4.63,0.09,6.98
						c-0.27,3-0.07,6.03-0.07,9.05c-0.03,0.6,0.3,1.17,0.84,1.44c0.02,0.89,0.04,1.78,0.05,2.67c-0.02,1.33-0.04,2.67-0.05,4
						c-1.14,0.91-0.69,2.03-0.41,3.12c-1.66,0.05-2.52-0.68-2.24-2.4c0.23-1.39-0.37-2.06-1.63-2.6c-2.15-1.2-4.41-2.21-6.74-3
						c-2.3-0.88-2.3-0.88-2.3,1.74c-1.52-0.22-1.92-1.1-1.86-2.59c0.12-3.37,0.06-6.76,0-10.14c0-0.67,0.38-1.47-0.4-2.03
						 M88.85,143.47c2.77,1.97,5.77,3.59,8.94,4.81c1.32,0.66,0.63-0.8,0.86-1.3c0.82-1.3,0.2-2.73,0.37-4.09
						c0.05-0.48,0.22-1.21-0.37-1.38c-2.46-0.7-4.27-2.98-7.05-2.86c-0.53-0.6-1.23-1.04-2-1.25c-0.53-0.25-1.15-0.15-1.12,0.53
						c0.07,1.83-0.58,3.75,0.37,5.54 M92.4,130.1c-0.64-1.15-1.92-1.3-2.93-1.89c-0.56-0.33-1.1-0.24-1.05,0.52
						c0.13,1.81-0.54,3.69,0.43,5.43c0.08,0.96,0.94,1.05,1.56,1.38c1.65,0.86,3.3,1.67,4.96,2.51c3.25,1.62,3.25,1.62,3.26-1.96
						c-0.16-1.19,0.67-2.76-0.62-3.51C96.36,131.34,94.44,130.49,92.4,130.1"/>
					<path id="Path_30942" class="st7" d="M13.57,95.91c-0.23-0.5-0.05-1.09,0.42-1.37l-0.02,0.04c0-0.33,0-0.66,0-0.99l0.49-0.85
						c-0.26-0.56,0.41-0.86,0.37-1.36c0.15,0,0.32-0.06,0.44,0c1.94,0.85,2.93-0.24,3.81-1.76c1-1.78-1.38-1.03-1.47-2
						c-0.02-0.14-0.04-0.29-0.08-0.43l0.32-0.33l0.62-0.42l1.28-0.86l0.48-0.51l-0.04,0.03c0.37-0.04,0.77-0.04,0.93-0.5l-0.06,0.04
						c0.58-0.03,1.28,0.14,1.39-0.75l1.8-0.99c1.51,2.87,4.4,3.48,6.23,1.33c0.62-0.73,1.31-0.34,2.01-0.14
						c2.3,0.66,4.62,1.29,6.93,1.94c1.17,1.62,2.92,2.73,4.89,3.1l0,0c0.17,0.37,0.33,0.27,0.48,0c1.94,1.5,3.91,2.98,5.82,4.52
						c1.06,0.85,2.3,1.57,2.61,3.08c-0.85,0-1.26-0.69-1.83-1.16c-4.44-4.05-9.81-6.94-15.64-8.43
						c-10.43-2.37-18.57,2.62-19.53,13.12c-0.51,8.33,1.73,16.6,6.38,23.54c1.7,2.82,3.76,5.42,5.66,8.12
						c-0.78-0.07-1.58-0.63-2.35,0.04c-2.79-2.61-5.03-5.75-6.6-9.23c1.1-2.51-0.73-4.4-1.43-6.51c-0.34-1.07-1.14-0.52-1.8-0.29
						c-1.82-2.58-2.72-5.69-2.56-8.84c0.04-0.8-0.1-1.6,0.67-2.22c1.33-1.1,0.49-2.62,0.67-3.95c0.21-1.51-1.3-0.38-1.65-1.03
						c-0.08-0.21-0.12-0.42-0.14-0.64c0.1-0.62-0.76-1.26,0.04-1.86c0.32-0.41,0.49-0.92,0.46-1.43"/>
					<path id="Path_30943" class="st7" d="M69.22,140.82c-1.87-0.5-2.36,1.14-3.15,2.16c-0.46,0.6,0.37,0.76,0.75,1.03
						c0.54,0.37,1.6,0.12,1.55,1.24c-2.49,1.52-5.13,2.79-7.88,3.78c-0.25-0.37-0.48-0.73-0.73-1.06c-1.02-1.23-2.79-1.54-4.17-0.73
						c-1.17,0.63,1.04,1.35,0.77,2.37h-1.37l-0.6-0.37c-2.54,0.04-5.07-0.44-7.42-1.4c-0.46-0.67-0.88-1.37-1.4-1.99
						c-1.19-1.77-3.49-2.39-5.41-1.47L40,144.46l-0.14-0.11l-0.63-0.41c-2.85-1.67-5.48-3.67-7.85-5.96
						c-0.06-1.91-1.55-3.15-2.2-4.76c1.34,0.14,1.89,1.34,2.75,2.11c5.12,4.94,11.44,8.46,18.34,10.23
						c4.04,1.12,8.35,0.55,11.97-1.56c4.55-2.97,7.22-8.1,7.02-13.53c-0.01-3.91-0.59-7.79-1.73-11.53
						c0.49,0.08,0.64,0.41,0.87,0.84c0.95,2.48,1.69,5.04,2.2,7.65c-0.05,1.64-1.1,3.28,0,4.91c0.17,2.9-0.3,5.8-1.38,8.49"/>
					<path id="Path_30944" class="st8" d="M215.98,105.99c-0.84,0.48-1.53,1.17-1.99,2.01c-0.86,1.86-2.87,2.9-4.88,2.52
						c-0.88-0.08-1.77-0.06-2.65,0.04l0.05-0.05l-0.5-0.46c-1.82-2.3-3.76-4.51-5.82-6.6c1.89-0.32,3.45-1.68,4.03-3.51
						c0.4-0.96,0.95-1.67,2.12-1.53C209.96,100.36,213.23,102.92,215.98,105.99"/>
					<path id="Path_30945" class="st7" d="M101.8,147.94c-0.02-0.89-0.03-1.78-0.05-2.67c0.8-1.58,0.62-3.53,1.85-4.94
						c0.43,0,0.87,0,1.3,0.05c1.09,0.15,2.1-0.6,2.25-1.69c0.01-0.05,0.01-0.09,0.01-0.14c0.12-0.91-1.13-0.75-1.83-0.93
						c0-0.27,0.03-0.53,0.05-0.8c0.79-0.08,1.48-0.6,1.77-1.34c2.11-0.89,4.08-3.53,6.5-0.27c0.92,0.54,2.11,0.23,2.66-0.69
						c0.06-0.11,0.12-0.23,0.16-0.35c0.81-0.07,1.62,0,2.4,0.22c1.73,0.56,3.5,1.01,5.25,1.51l0,0l0.46,0.49
						c1.1,1.13,2.52,1.9,4.06,2.22c1.18,1.01,2.84,1.49,3.49,3.1c-0.68-0.05-1.32-0.32-1.83-0.76c-2.96-2.08-6.33-3.51-9.89-4.19
						c-10.35-2.3-16.22,5.19-15.62,14.75c0.19,3.07,1.32,5.9,1.5,8.91l-1.43,0.47c-0.73-1.55-1.29-3.16-1.69-4.83
						c-0.21-0.49-0.25-0.97-0.89-1.04c-0.01-1-0.02-2.01-0.04-3.01c2.22-0.55,1.33-2.36,1.3-3.63c-0.03-1.28-1.17-0.1-1.71-0.43"/>
					<path id="Path_30946" class="st7" d="M149.42,181.83c-0.58-0.15-1.19-0.07-1.71,0.22c-1.21,0.93-1.1,1.85,0.26,2.6
						c0.29,0.16,0.44,0.55,0.66,0.84c-2.24,1.27-4.6,2.34-7.03,3.19c-0.84-2.06-2.56-1.57-4.26-1.49l0.56,1.65
						c-2.6,0.08-5.19-0.38-7.61-1.34l-0.66-0.37l-0.11,0.07l-0.1-0.08c-0.45-2.2-3.12-3.72-4.51-2.59
						c-2.81-1.43-5.36-3.32-7.54-5.61c0-0.69,0-1.38,0-2.08c0.75,0.47,1.47,0.98,2.16,1.54c4.19,4,9.5,6.62,15.22,7.51
						c5.87,1.19,11.69-2.22,13.52-7.93c0.94-3.73,1.05-7.61,0.33-11.38c1.93,0.87,1.08,2.64,1.3,4.06c0.22,1.32-0.44,2.74,0.45,3.99
						c0.16,2.43-0.16,4.88-0.96,7.18"/>
					<path id="Path_30947" class="st8" d="M221.79,113.24c-0.35,2.87-3.14,2.74-4.87,3.85c-1.79,0.99-3.65,1.85-5.56,2.56
						c-0.69,0.31-0.88,0.7-0.33,1.35c0.46,0.55,0.84,1.18,1.28,1.81c-0.64,0.45-1.44,0.18-1.89,1.47c-0.29-3.17-1.01-6.28-2.13-9.25
						c-0.28-0.57-0.08-1.17,0.63-0.95c4.59,1.43,6.73-1.72,9-4.7c0.15-0.19,0.53-0.2,0.81-0.29
						C219.95,110.32,220.98,111.72,221.79,113.24"/>
					<path id="Path_30948" class="st8" d="M161.01,38.32V66.4h-2.09h-0.09c0-9.05,0-18.11,0-27.17
						C159.52,38.83,160.09,38.16,161.01,38.32"/>
					<path id="Path_30949" class="st8" d="M196.71,101.13l-9.43-5.86c4.68-1.81,9.92-1.54,14.39,0.73
						C201.31,98.61,199.3,100.69,196.71,101.13"/>
					<path id="Path_30950" class="st9" d="M51.99,65.01c-6.87,2.97-13.42,6.57-20.15,9.83c-0.52,0.26-1.12,0.43-1.41,1.01
						c-2.38-0.3-4.52,1.35-7.62,0.88c1.43-0.73,2.3-1.22,3.18-1.66c4.56-2.28,9.04-4.72,13.7-6.76
						C43.57,66.53,47.73,65.41,51.99,65.01"/>
					<path id="Path_30951" class="st3" d="M161.01,38.32c-0.92-0.17-1.49,0.5-2.18,0.89c-9.42,4.7-18.81,9.46-28.27,14.07
						c-3.82,2.12-7.76,4.02-11.8,5.68c0-0.48-0.03-0.96-0.05-1.44c0.75,0.01,1.48-0.21,2.1-0.62c9.27-4.63,18.53-9.27,27.78-13.92
						c0.59-0.3,1.52-0.34,1.54-1.35l0.1,0.03c0.3,0.11,0.47,0,0.53-0.31h-0.02c2.37-0.5,4.64-1.42,6.68-2.73
						c1.15-0.66,2.37-1.21,3.62-1.64L161.01,38.32"/>
					<path id="Path_30952" class="st3" d="M30.48,84.21c-1.85,2.15-4.72,1.54-6.23-1.33c2.99-1.96,6.62-2.73,9.47-4.96
						c0.8,0.04,1.56,0.37,2.14,0.91c-1,1.71-2.93,1.94-4.48,2.76c-1.24,0.02-2.44,0.41-3.47,1.1c0.72,0.71,1.6,1.22,2.56,1.51"/>
					<path id="Path_30953" class="st3" d="M196.71,101.13c2.6-0.44,4.61-2.52,4.96-5.13c1.7,0.46,3.29,1.27,4.65,2.4
						c-1.17-0.14-1.72,0.58-2.12,1.53c-0.58,1.83-2.14,3.19-4.03,3.51l-3.46-2.32"/>
					<path id="Path_30954" class="st3" d="M158.92,66.4h2.09v12.86l-2.29-1.64c0.06-3.74,0.13-7.48,0.19-11.22"/>
					<path id="Path_30955" class="st7" d="M113.34,174.72c-2.33-2.49-4.29-5.31-5.8-8.36c0.17-0.66,0.33-1.31,0.49-1.97
						c2.01,2.68,3.82,5.5,5.41,8.45L113.34,174.72"/>
					<path id="Path_30956" class="st6" d="M178.44,171.09c0.11-1.68-0.73-4.1,0.34-4.86c1.23-0.87,2.91,1.14,4.48,1.66
						c0.33,0.13,0.65,0.29,0.96,0.48L178.44,171.09"/>
					<path id="Path_30957" class="st8" d="M29.15,133.21c0.66,1.62,2.15,2.87,2.2,4.76c-2.29-1.53-4.16-3.61-5.44-6.04
						c0.77-0.68,1.56-0.11,2.35-0.05l0,0c-0.06,0.36,0.12,0.72,0.44,0.89l0,0L29.15,133.21L29.15,133.21z"/>
					<path id="Path_30958" class="st3" d="M13.07,99.2c0.02,0.22,0.06,0.43,0.14,0.64c0.37,0.64,1.86-0.48,1.65,1.03
						c-0.19,1.33,0.66,2.86-0.67,3.95c-0.77,0.63-0.62,1.43-0.67,2.22C12.35,104.59,12.19,101.78,13.07,99.2"/>
					<path id="Path_30959" class="st10" d="M17.53,87.18c0.03,0.14,0.06,0.28,0.08,0.43c0.07,0.97,2.45,0.22,1.47,2
						c-0.86,1.52-1.86,2.62-3.81,1.76c-0.14-0.03-0.29-0.03-0.44,0c0.35-1.69,1.32-3.18,2.71-4.2"/>
					<path id="Path_30960" class="st4" d="M16.07,115.89c0.66-0.23,1.47-0.78,1.8,0.29c0.69,2.12,2.54,4,1.43,6.51
						C17.69,120.72,16.58,118.39,16.07,115.89"/>
					<path id="Path_30961" class="st4" d="M40.15,144.4c1.92-0.92,4.22-0.3,5.41,1.47c0.52,0.62,0.93,1.33,1.4,1.99
						c-2.47-0.7-4.78-1.87-6.81-3.45"/>
					<path id="Path_30962" class="st3" d="M56.34,149.63c0.27-1.02-1.94-1.74-0.77-2.37c1.38-0.81,3.14-0.5,4.17,0.73
						c0.27,0.34,0.5,0.7,0.73,1.06c-1.3,0.56-2.73,0.77-4.14,0.59"/>
					<path id="Path_30963" class="st8" d="M113.34,174.73l0.1-1.88c1.1,0.05,1.28,1.03,1.73,1.74c-0.06,0.39,0.12,0.77,0.45,0.98
						l0.84,0.85c0.2,0.32,0.57,0.49,0.94,0.45l0,0c0,0.69,0,1.38,0,2.08c-1.59-1.15-2.95-2.58-4.03-4.21"/>
					<path id="Path_30964" class="st4" d="M108.03,164.4l-0.49,1.97c-1.27-1.63-2.19-3.5-2.71-5.5l1.43-0.47l0,0
						c-0.1,0.85,0.24,1.68,0.89,2.23l0,0c-0.05,0.36,0.13,0.72,0.45,0.89l0,0c-0.06,0.36,0.12,0.72,0.44,0.89l0,0"/>
					<path id="Path_30965" class="st3" d="M124.91,184.54c1.4-1.13,4.06,0.4,4.51,2.59C127.77,186.57,126.23,185.69,124.91,184.54"
						/>
					<path id="Path_30966" class="st3" d="M137.9,188.84l-0.56-1.65c1.69-0.08,3.42-0.57,4.26,1.49
						C140.42,189.16,139.11,189.21,137.9,188.84"/>
					<path id="Path_30967" class="st11" d="M88.42,148.78c0-2.62,0-2.62,2.3-1.74C90.47,148.1,89.51,148.82,88.42,148.78"/>
					<path id="Path_30968" class="st6" d="M102.22,151.98c0.01,1,0.02,2.01,0.04,3.01l-0.92,0.05c-0.28-1.1-0.73-2.2,0.41-3.12
						L102.22,151.98"/>
					<path id="Path_30969" class="st10" d="M13.57,95.91c0.02,0.52-0.14,1.03-0.46,1.43C12.6,96.65,13,96.25,13.57,95.91"/>
					<path id="Path_30970" class="st10" d="M22.45,83.87c-0.11,0.9-0.81,0.73-1.39,0.75C21.4,84.2,21.9,83.93,22.45,83.87"/>
					<path id="Path_30971" class="st10" d="M14.45,92.74l-0.49,0.85C13.48,92.93,14.4,93.08,14.45,92.74"/>
					<path id="Path_30972" class="st10" d="M21.11,84.58c-0.15,0.45-0.55,0.46-0.92,0.5C20.38,84.76,20.74,84.57,21.11,84.58"/>
					<path id="Path_30973" class="st10" d="M13.97,94.58v-0.04c-0.05,0.07-0.12,0.22-0.16,0.21c-0.21-0.03-0.19-0.05,0.03-0.03
						c0.04,0,0.08-0.09,0.12-0.14"/>
					<path id="Path_30974" class="st4" d="M39.22,143.94l0.63,0.41C39.5,144.42,39.34,144.22,39.22,143.94"/>
					<path id="Path_30975" class="st10" d="M18.46,86.44l-0.61,0.42C17.97,86.6,18.12,86.38,18.46,86.44"/>
					<path id="Path_30976" class="st10" d="M20.22,85.04l-0.48,0.51C19.58,85.08,19.97,85.13,20.22,85.04"/>
					<path id="Path_30977" class="st3" d="M54.38,149.29l0.6,0.37c-0.26,0.07-0.53-0.09-0.59-0.35
						C54.39,149.3,54.39,149.29,54.38,149.29"/>
					<path id="Path_30978" class="st3" d="M129.63,187.14l0.66,0.37C129.97,187.58,129.78,187.39,129.63,187.14"/>
					<path id="Path_30979" class="st8" d="M118.73,57.54c0,0.48,0.03,0.96,0.05,1.43c0,2.17,0,4.34,0,6.51
						c0.04,2.38-0.92,5.1,2.37,6.31c0.66,0.24,0.73,1.04,0.64,1.75l-1.29,0.43c-0.05-0.85,0.24-1.94-1.02-2.13
						c-0.85-0.13-0.92,0.77-0.93,1.25c-0.03,1.64,1.31,0.54,1.95,0.87c-1.47,1.27-3.37,0.69-5.03,1.15
						c-0.25,0.07-1.47-0.05-0.27-0.92c0.61-0.47,0.72-1.34,0.25-1.94c-0.09-0.12-0.2-0.22-0.33-0.31c-0.77-0.48-1.33,0.37-1.64,1.03
						c-0.23,0.48-0.34,0.97-0.99,1c-0.3-1.21,0.41-2.45,1.6-2.81c1.09-0.37,1.73-1.49,1.51-2.62c-0.04-1.03-0.2-2.05-0.47-3.04
						v-4.48c0.03-0.37-0.15-0.72-0.47-0.9c1.21-0.82,0.92-2.01,0.78-3.16V53c0.05-0.47-0.08-0.95-0.37-1.33c0-1.77,0.07-3.55,0-5.32
						c-0.16-1,0.52-1.94,1.52-2.1c0.16-0.03,0.33-0.03,0.49-0.01c1.32-0.04,1.7,0.89,1.62,2.11c-0.06,0.88,0,1.77,0,2.66
						L118.73,57.54"/>
					<path id="Path_30980" class="st6" d="M115.13,51.66c0.29,0.38,0.42,0.86,0.37,1.33c-1.33,0-2.27,1-3.45,1.36
						c-1.68,0.38-2.74,2.05-2.36,3.73c0.01,0.04,0.02,0.08,0.03,0.12c0.11,1.14,0.3,1.47,1.4,0.88c1.43-0.76,2.91-1.42,4.37-2.12
						c0.14,1.15,0.43,2.34-0.78,3.16c-2.01,0.46-3.53,2.11-5.65,2.29c-1.15-1.6-0.37-3.43-0.54-5.13c-0.06-0.96-0.06-1.93,0-2.89
						C110.85,53.82,112.67,51.95,115.13,51.66"/>
					<path id="Path_30981" class="st11" d="M178.45,159.05c-5.2-2.35-10.38-4.76-15.35-7.57c-0.49-0.33-1.08-0.47-1.66-0.39
						l0.04-0.04l-0.47-0.5c-1.14-1.4-1.62-3.25-3.03-4.46c-0.84-1.86-2.06-3.53-3.56-4.91c-0.68-1.37-1.77-2.48-3.13-3.18
						c-2.49-3.36-5.87-5.96-9.75-7.51c-1.03-1.36-2.7-1.52-4.1-2.2c-0.23-0.16-0.48-0.3-0.73-0.43c-4.48-1.64-9.35-1.92-13.99-0.81
						l-0.85,0.05c-2.79-0.69-3.07-1.1-3.17-4.6c0-1.51-0.31-3.14,1.83-3.62c0.73-0.16,0.85-0.92,0.91-1.62
						c0.23-2.13,0.35-4.26,0.37-6.4c-0.03-6.51,0.03-13.03,0.05-19.54c3.43,1.56,6.7,3.43,9.78,5.61
						c11.38,6.97,22.74,13.98,34.07,21.02c3.67,2.39,6.7,5.64,8.84,9.46c0.17,0.4,0.29,0.83,0.34,1.26
						c-1.41-0.6-2.85-1.13-4.21-1.83c-3.2-1.64-5.1-0.53-5.13,3.13c-0.04,4.21-0.04,8.43,0,12.64c-0.17,2.72,1.05,5.34,3.24,6.96
						c2.35,1.66,4.96,2.93,7.72,3.75c0.45,0.59,1.18,0.91,1.92,0.83c0.44,1.32-0.96,3.08,0.97,4.03L178.45,159.05 M125.65,107.65
						c0.03,0.76,0.64,0.85,1.07,1.06c5.2,2.62,10.4,5.24,15.61,7.84c0.49,0.25,1.12,1.02,1.5,0.34c0.46-0.85-0.61-1-1.13-1.26
						c-5.22-2.64-10.44-5.25-15.68-7.84C126.65,107.59,126.28,107.24,125.65,107.65 M143.7,114.48l0.47-0.77
						c-5.94-3.3-12.09-6.2-18.19-9.19l-0.44,0.86l18.18,9.1 M143.71,122.98l0.45-0.86l-17.98-8.99l-0.44,0.85l17.95,8.99
						 M143.67,125.83l0.44-0.88l-17.84-8.9c-0.14,0.29-0.29,0.58-0.43,0.86L143.67,125.83 M143.57,120.01l0.49-0.85l-17.99-9
						l-0.44,0.87l17.95,8.98"/>
					<path id="Path_30982" class="st12" d="M121.8,73.54c0.1-0.71,0-1.51-0.64-1.75c-3.3-1.21-2.33-3.93-2.37-6.31
						c4.49,0.21,9,0.25,13.48,0.34c8.86,0.18,17.7,0.89,26.57,0.58h0.09c-0.06,3.74-0.12,7.49-0.19,11.24
						c-2.3-1.34-4.66-2.58-6.87-4.06c-1.24-0.98-2.95-1.07-4.29-0.24c-7.66,3.92-15.39,7.72-23.08,11.56
						c-0.86,0.43-1.76,0.75-2.64,1.13l-0.06-12.46"/>
					<path id="Path_30983" class="st10" d="M121.8,73.54L121.86,86c0,1.77,0.01,3.54,0.03,5.31c-0.03,6.51-0.08,13.03-0.05,19.54
						c0,2.15-0.15,4.27-0.37,6.4c-0.07,0.71-0.2,1.47-0.91,1.63c-2.16,0.47-1.83,2.11-1.85,3.62c-0.37-1.96-1.38-3.06-3.54-2.65
						c-0.57-0.67-1.34-1.14-2.2-1.34c-0.39-0.72-0.56-1.54-0.47-2.35c0-14.06,0.01-28.13,0.02-42.19c0.65-0.03,0.76-0.52,0.99-1
						c0.31-0.66,0.88-1.51,1.64-1.03c0.64,0.42,0.81,1.28,0.38,1.92c-0.08,0.13-0.19,0.24-0.31,0.33c-1.21,0.87,0,1,0.27,0.93
						c1.66-0.46,3.56,0.12,5.03-1.15l0,0l1.29-0.43"/>
					<path id="Path_30984" class="st10" d="M176.53,153.32c-2.76-0.82-5.37-2.08-7.72-3.75c-2.19-1.62-3.41-4.24-3.24-6.96
						c-0.04-4.21-0.04-8.43,0-12.64c0.04-3.66,1.93-4.76,5.13-3.13c1.36,0.7,2.81,1.22,4.21,1.83l0.43,0.25
						c2.62,5.61,3.65,11.82,2.97,17.98c-0.09,1.47-0.04,2.94,0.14,4.4c0.1,1.43-0.54,2.07-1.93,2.05"/>
					<path id="Path_30985" class="st3" d="M206,110.06l0.5,0.46L206,110.06"/>
					<path id="Path_30986" class="st8" d="M178.45,159.05l0.96-0.86c0.74-0.02,1.46-0.25,2.08-0.66
						c8.19-4.09,16.34-8.26,24.58-12.23c2.79-1.34,5.35-2.48,4.03-6.3c0.47-2.11,0.61-4.28,0.42-6.44c0.09-0.83-0.34-1.77,0.48-2.47
						c0.47,0.22,0.8,0.68,0.86,1.19c1.19,3.79,1.51,7.79,0.95,11.72c-0.43,1.7,1.19,2.16,2.31,2.41c1.23,0.27,0.54-1.04,0.82-1.6
						c0.16-0.41,0.28-0.83,0.37-1.27c0.54,0.01,0.96,0.46,0.95,1c0,0.15-0.04,0.3-0.11,0.43c-0.87,2.04,0.39,2.98,1.83,3.88
						c-10.21,5.11-20.42,10.23-30.63,15.34c-0.34,0.14-0.69,0.27-1.04,0.37C184.25,162.29,181.29,160.78,178.45,159.05"/>
					<path id="Path_30987" class="st6" d="M210.11,138.99c1.32,3.81-1.24,4.96-4.03,6.3c-8.25,3.97-16.4,8.14-24.58,12.23
						c-0.62,0.41-1.34,0.64-2.08,0.66c-1.93-0.96-0.53-2.72-0.97-4.03c2.75-0.81,5.38-2,7.8-3.54c7.33-3.51,14.55-7.21,21.82-10.84
						C208.68,139.35,209.38,139.08,210.11,138.99"/>
					<path id="Path_30988" class="st13" d="M198.9,130.26c-0.34-1.47,0.49-2.37,1.97-3.03c1.54-0.69,2.93-1.66,4.48-2.36
						c1.13-0.52,2.41-1.47,3.55-0.06c0.67,1.7,0.41,3.62-0.7,5.07c-2.28,1.22-4.57,2.41-6.94,3.44
						C199.51,134.1,198.88,133.28,198.9,130.26 M205.93,129.16c1.51,0.07,1.83-0.89,1.92-1.97c0.08-0.88-0.11-1.65-1.28-1.54
						c-1.47,0.05-2.63,1.27-2.61,2.74C203.93,129.72,205.49,128.44,205.93,129.16"/>
					<path id="Path_30989" class="st13" d="M189.78,136.92c0.32,1.6-0.49,2.6-2.2,3.33c-2.07,0.95-4.09,2.03-6.04,3.22
						c-0.44,0.25-0.67,0.42-1.12,0.08c-1.57-1.82-1.43-4.55,0.32-6.2c1.83-1,3.69-1.88,5.55-2.79
						C188.96,133.24,189.76,133.74,189.78,136.92 M186.59,138.65c1.08,0.56,1.37-0.18,1.7-1c0.32-0.82,0.47-1.55-0.33-2.17
						c-0.8-0.63-1.4-0.02-1.99,0.33c-0.49,0.29-0.83,0.84-1.32,1.15c-0.76,0.48-1.14,1.29-0.73,1.83c0.46,0.6,0.85,1.33,1.43,0.05
						c0.18-0.41,0.79-0.25,1.24-0.17"/>
					<path id="Path_30990" class="st14" d="M216.34,142.56c-0.08,0.43-0.2,0.86-0.37,1.27c-0.28,0.55,0.41,1.87-0.82,1.6
						c-1.12-0.25-2.74-0.71-2.31-2.41c0.56-3.93,0.24-7.94-0.95-11.72c-0.07-0.52-0.39-0.97-0.86-1.19c-0.1-1.13-1.04-2.1-0.63-3.88
						c0.68,1.83,2.03,2.11,3.25,2.56c0.94,2.92,1.69,5.89,2.25,8.9l-1.4,0.89l-0.37,1.34C213.66,141.81,215.09,142.11,216.34,142.56
						"/>
					<path id="Path_30991" class="st8" d="M215.9,137.67c-0.56-3.01-1.32-5.99-2.25-8.9c0.41-0.52,0.96-0.63,1.23,0
						c1.02,2.53,1.79,5.16,2.28,7.84c0.21,0.95-0.53,1.07-1.26,1.07"/>
					<path id="Path_30992" class="st4" d="M214.14,139.91l0.37-1.34c2.06,0.04,1.3,1.33,1.21,2.43c-0.9,0-0.71-1.25-1.56-1.1"/>
					<path id="Path_30993" class="st14" d="M94.14,107.43c-3.12-4.98-6.27-9.94-9.36-14.94c-2.24-3.63-4.4-7.3-6.6-10.96
						c4.65-2.56,9.44-4.87,14.25-7.13h0.45c2.91,3.87,5.05,8.24,7.79,12.2c1.33,1.92,1.83,4.51,4.23,5.63
						c0,3.42,0.01,6.83,0.03,10.23c-1.73,0.63-3.41,1.39-5.02,2.27c-1.97,0.78-3.48,2.56-5.75,2.69"/>
					<path id="Path_30994" class="st5" d="M75.94,116.28c-2.15-3.42-4.3-6.85-6.44-10.28c-0.37-0.72-0.88-1.36-1.5-1.88
						c-0.93-2.19-2.14-4.26-3.6-6.14c-0.67-1.46-1.55-2.82-2.62-4.03l-1.5-3.03c4.05-2.39,8.26-4.49,12.61-6.29
						c3.7,4.9,6.6,10.3,9.89,15.47c1.66,2.62,3.23,5.3,4.89,7.91c0.58,0.68,0.85,1.57,0.73,2.45c-0.81,0.03-1.59,0.28-2.27,0.73
						l-10.19,5.09"/>
					<path id="Path_30995" class="st15" d="M92.88,74.41h-0.46c-1.99-2.08-4.89-2.59-7.2-4.15c-1.05-0.6-1.74-1.69-1.81-2.9
						c-0.29-2.03-0.39-4.09-0.3-6.14c0.11-2.2-0.82-1.98-2.14-1.1c-1.31,0.96-2.82,1.6-4.42,1.88c-0.05-3.78-0.09-7.56-0.14-11.34
						c0-0.92,0.25-1.21,1.18-0.69c1.94,1.08,3.94,2.06,5.91,3.08v5.62c1.89-1.07,3.92-1.16,4.91-2.99
						c5.35,2.2,10.34,5.09,15.55,7.56c0.92,0.44,0.99,1.18,0.97,2.03c-0.03,1.1-0.04,2.22-0.06,3.33
						c-4.19,1.51-8.22,3.46-12.01,5.81"/>
					<path id="Path_30996" class="st15" d="M59.9,71.29c-0.69-0.48-0.46-1.2-0.47-1.83c0-8.83,0.03-17.65-0.04-26.48
						c0-1.91,0.56-1.91,2-1.15c3.26,1.73,6.56,3.41,9.89,5.04c1.38,0.46,2.16,1.93,1.76,3.33c-0.26,2.27-0.27,4.57-0.04,6.84
						c0.13,2.34-0.08,4.71-0.15,7.06c-0.56,0.32-1.14,0.63-1.7,0.97c-3.86,1.87-7.62,3.94-11.26,6.2"/>
					<path id="Path_30997" class="st3" d="M112.96,118.51c0.86,0.2,1.63,0.67,2.2,1.34c0.09,1.76,0.53,3.47,0.48,5.25
						c-0.05,1.78,1.66,2.91,1.93,4.61c0.15,0.13,0.35,0.19,0.54,0.15c1.24-0.94,3.16-0.96,3.76-2.76l0.85-0.05
						c0.01,1.74-1.04,3.31-2.66,3.95c-0.59,0.25-1.3,0.45-1.33,1.3c-1.31-0.02-2.62,0.23-3.83,0.73c0.26,0.88,0.97,0.91,1.56,1.1
						c-0.35,1.01-1.46,1.55-2.47,1.2c-0.12-0.04-0.24-0.1-0.35-0.16c-2.42-3.26-4.4-0.63-6.5,0.27c0-0.88,0.07-1.78,0-2.65
						c0.25-2.25,0.1-4.53-0.44-6.73c0.01-1.04,0.03-2.08,0.04-3.11c1.26-1.3,0.37-2.81,0.39-4.21c0.05-6.51,0.02-13.03,0.02-19.54
						c0-8.66,0.07-17.32-0.05-25.98c0.31-2.17,0.35-4.38,0.12-6.56c-0.4-1.6,1.08-1.6,2.2-1.64l0.37,0.04c0,17.38,0,34.77,0,52.15
						c0,3,0.23,3.13,2.85,1.61C112.76,118.72,112.86,118.62,112.96,118.51"/>
					<path id="Path_30998" class="st16" d="M76.56,61.98c1.6-0.27,3.11-0.92,4.42-1.88c1.32-0.88,2.25-1.1,2.14,1.1
						c-0.09,2.05,0.01,4.11,0.3,6.14c0.08,1.21,0.76,2.3,1.81,2.9c2.31,1.56,5.21,2.07,7.2,4.15c-4.81,2.26-9.6,4.55-14.25,7.13
						l-1.78-2.22c0-5.5,0-10.99,0-16.49l0.18-0.84"/>
					<path id="Path_30999" class="st7" d="M92.88,74.41c3.79-2.35,7.82-4.29,12.01-5.81v23.64c-2.39-1.12-2.9-3.71-4.23-5.63
						C97.91,82.65,95.78,78.28,92.88,74.41"/>
					<path id="Path_31000" class="st6" d="M75.94,116.28l10.19-5.09c0.67-0.45,1.46-0.7,2.27-0.73c0,2.25,0.01,4.5,0.03,6.75
						l-1.78,1.29c-0.9,1.1-0.21,2.42-0.48,3.61c-2.76,1.34-5.57,2.6-8.27,4.06c-1.43,0.77-2.06,0.92-1.99-1.05
						C76.01,122.19,75.94,119.22,75.94,116.28"/>
					<path id="Path_31001" class="st16" d="M59.9,71.29c3.64-2.26,7.4-4.33,11.26-6.2c0.56-0.34,1.13-0.65,1.7-0.97h0.05l0.04,13.52
						C68.46,75.84,64.26,73.4,59.9,71.29"/>
					<path id="Path_31002" class="st6" d="M106.73,122.96c-0.01,1.04-0.03,2.08-0.04,3.12c-0.62,3.54-1.06,7.11-1.32,10.7
						c0,0.27-0.03,0.53-0.05,0.8c-0.97,0.59-1.6,1.6-1.72,2.73c-1.23,1.41-1.05,3.36-1.85,4.94c-0.54-0.27-0.87-0.84-0.84-1.44
						c0-3.02-0.2-6.06,0.07-9.05c0.21-2.35-0.32-4.65-0.09-6.96c-0.02-0.75,0.16-1.49,0.5-2.15c1.83-0.49,3.52-1.42,4.91-2.71h0.45"
						/>
					<path id="Path_31003" class="st12" d="M94.14,107.43c2.28-0.13,3.78-1.91,5.75-2.69c1.61-0.88,3.29-1.64,5.02-2.27
						c0,2.37,0,4.74,0,7.11l-10.3,5.39C94.18,112.49,94.02,109.95,94.14,107.43"/>
					<path id="Path_31004" class="st15" d="M94.62,114.98l10.3-5.39c0,2.93,0,5.89,0.03,8.83c0,1.16-0.29,1.76-1.53,1.1
						c-2.93-1.54-6.02-2.73-8.79-4.54"/>
					<path id="Path_31005" class="st7" d="M72.96,77.64l-0.04-13.52l3.46-1.3c0,5.5,0,10.99,0,16.49c-1.47,0.09-2.28-1.12-3.43-1.67
						"/>
					<path id="Path_31006" class="st2" d="M98.69,125.85c-0.05,4.47-0.08,4.52-4.07,2.42c-1.81-0.95-4.08-1.12-5.31-3.08
						c1.24-1.04,2.78-1.65,4.4-1.74l4.96,2.4"/>
					<path id="Path_31007" class="st6" d="M93.72,123.44c-1.62,0.09-3.17,0.7-4.42,1.74c-1.72-1.81-0.87-3.81-0.43-5.77
						c1.84-0.49,3.53-1.42,4.93-2.72C94.63,118.96,93.32,121.19,93.72,123.44"/>
					<path id="Path_31008" class="st14" d="M88.43,55.68c-1,1.83-3.03,1.92-4.91,2.99v-5.63c1.76,0.63,3.41,1.52,4.91,2.63"/>
					<path id="Path_31009" class="st15" d="M109.8,65.07l-0.37-0.04c-0.03-0.29-0.07-0.58-0.1-0.86c1.86-1.19,3.81-2.24,5.84-3.13
						v4.48c-1.77-0.32-3.56-0.46-5.36-0.43"/>
					<path id="Path_31010" class="st2" d="M93.81,116.7c-1.4,1.3-3.09,2.23-4.93,2.72c-0.85,0.08-1.69-0.27-2.25-0.92l1.78-1.29
						c1.79-0.26,3.4-2.36,5.39-0.52"/>
					<path id="Path_31011" class="st2" d="M106.27,122.95c-1.39,1.29-3.07,2.22-4.91,2.71h-2.51
						C100.53,123.3,103.48,122.22,106.27,122.95"/>
					<path id="Path_31012" class="st3" d="M115.16,61.02c-2.02,0.89-3.97,1.94-5.83,3.13c-1.83,0.18-1.83,0.18-1.71-1.36
						c0.53,0.08,1.05,0.13,1.42-0.39c2.13-0.17,3.66-1.83,5.65-2.29C115.01,60.3,115.2,60.65,115.16,61.02"/>
					<path id="Path_31013" class="st3" d="M54.13,36.51c0.18-0.49,0.37-0.22,0.56,0H54.13"/>
					<path id="Path_31014" class="st8" d="M60.28,90.93l1.5,3.03l-6.36,0.02c-0.18-1.33-1.31-1.86-2.18-2.63
						c-2.21-1.44-4.31-3.06-6.26-4.84c0.51-0.78,1.33-0.44,2.03-0.55c2.31-0.21,3.85,1.55,5.77,2.31
						C56.7,89.04,58.44,90.04,60.28,90.93"/>
					<path id="Path_31015" class="st8" d="M31.38,81.59c1.56-0.81,3.48-1.04,4.48-2.76c2.92,1.01,5.65,2.51,8.06,4.44
						c-1.28,0.54-2.68,0.74-4.05,0.57c-0.53-0.71-1.39-0.71-2.14-0.95c-2.14-0.29-4.26-0.73-6.34-1.31"/>
					<path id="Path_31016" class="st3" d="M39.86,83.83c1.38,0.17,2.77-0.02,4.05-0.56c1.99,0.16,3.83,1.13,5.09,2.67
						c-0.69,0.11-1.51-0.23-2.03,0.55l-4-0.07c-1.18-0.93-2.27-2.14-4.03-1.33C38.1,83.84,39.18,83.99,39.86,83.83"/>
					<path id="Path_31017" class="st8" d="M154.42,141.18c1.51,1.38,2.72,3.05,3.56,4.91c-3.46,2.68-7.41,4.65-11.62,5.83
						c-1.52-1.64-2.87-3.42-4.03-5.33c0.89,0,1.77-0.05,2.66,0c3.04,0.61,6.13-0.75,7.72-3.41c0.5-0.72,1.08-1.39,1.72-1.99"/>
					<path id="Path_31018" class="st14" d="M142.32,146.59c1.16,1.91,2.51,3.69,4.03,5.33c-0.45,0.88-1.02,1.67-0.04,2.67
						c1.05,1.07-0.44,2.02-0.37,3.08l-0.07,0.05l-6.23-8.92l0.02-0.86c0.78-0.58-0.1-1.17,0.02-1.75c0.89-0.21,1.82-0.07,2.61,0.39"
						/>
					<path id="Path_31019" class="st14" d="M149.92,170.66c-0.22-1.42,0.64-3.19-1.3-4.06c0-0.29-0.02-0.58-0.03-0.87
						c0.67-0.68,0.12-0.8-0.43-0.91c-0.91-2.31-1.67-4.68-2.28-7.09l0.07-0.05c0.27,0.33,0.68,0.62,0.78,1
						c0.4,1.42,0.86,2.63,2.71,1.72c0.71,2.32,1.47,4.62,2.09,6.96C151.91,168.83,152.15,170.39,149.92,170.66"/>
					<path id="Path_31020" class="st4" d="M149.93,170.66c2.22-0.27,2.01-1.83,1.62-3.3c-0.61-2.34-1.38-4.65-2.09-6.96
						c0.79,0,1.14,0.49,1.47,1.1c1.26,2.26,1.93,4.81,1.92,7.4c-0.33,1.75-0.57,3.52-0.71,5.29c-0.62-0.03-1.24,0.13-1.77,0.45
						c-0.89-1.25-0.23-2.67-0.45-3.99"/>
					<path id="Path_31021" class="st14" d="M150.37,174.65c0.53-0.33,1.14-0.49,1.76-0.46c0.19,2.34-0.16,4.69-1.04,6.87
						c-0.28,0.73-0.61,1.66-1.69,0.77C150.2,179.53,150.53,177.08,150.37,174.65"/>
					<path id="Path_31022" class="st5" d="M161.02,150.56l0.47,0.5L161.02,150.56"/>
					<path id="Path_31023" class="st14" d="M70.6,127.42c-0.51-2.61-1.25-5.17-2.2-7.65c-0.23-0.42-0.37-0.75-0.87-0.83
						c-2-5.92-5.01-11.46-8.88-16.37c-0.51-0.73-1.7-1.1-1.41-2.33c1.94,0.25,0.37-1.3,0.9-1.77c0.85,0.59,1.59,1.32,2.2,2.15
						c1.33,1.93,2.83,3.75,4.47,5.42c0.11,1.35,1.18,2.32,1.47,3.61c-0.05,0.27-0.1,0.55-0.15,0.82c-0.84,0.45-0.83,1.04-0.42,1.83
						c0.73,1.37,1.37,2.77,2.06,4.2c0.48-0.31,0.73-0.87,0.64-1.43c0.14-0.02,0.28-0.05,0.41-0.09c2.08,3.68,3.29,7.79,3.54,12.01
						l-1.76,0.46"/>
					<path id="Path_31024" class="st8" d="M66.26,109.64c-0.28-1.28-1.34-2.25-1.47-3.61c1.64-0.61,0.34-1.42,0-1.92
						c-1.27-1.93-2.67-3.77-4.03-5.65c1.19-0.22,2.51,0.46,3.61-0.49c1.46,1.88,2.67,3.94,3.6,6.14c-1.35,0.89-1.72,2.71-0.83,4.06
						c0.09,0.13,0.18,0.26,0.29,0.37c0.97,1.51-0.71,0.79-1.19,1.1"/>
					<path id="Path_31025" class="st14" d="M69.22,140.83c1.08-2.69,1.55-5.59,1.38-8.49c0.68-0.38,1.46-0.54,2.23-0.48
						c0.05,2.73-0.42,5.45-1.38,8.01C71.06,140.98,70.54,141.85,69.22,140.83"/>
					<path id="Path_31026" class="st8" d="M72.35,126.96c-0.24-4.22-1.45-8.33-3.54-12.01c1.44-0.61,2.06,0.52,2.43,1.43
						c1.15,2.94,1.97,6,2.44,9.12c0.11,0.67,0.11,1.38-0.86,1.47L72.35,126.96"/>
					<path id="Path_31027" class="st4" d="M72.35,126.96h0.47c0,1.63,0,3.26,0,4.89c-0.77-0.07-1.55,0.1-2.23,0.47
						c-1.1-1.63-0.06-3.27,0-4.91L72.35,126.96"/>
					<path id="Path_31028" class="st4" d="M68.4,115.05c0.09,0.56-0.17,1.12-0.64,1.43c-0.69-1.42-1.34-2.83-2.06-4.2
						c-0.41-0.77-0.42-1.37,0.42-1.83c1.43,1.09,2.27,2.78,2.29,4.58"/>
					<path id="Path_31029" class="st16" d="M161.12,32.57c0.25,1.1-0.3,1.78-1.43,2.24c-1.02,0.41-1.96,1.04-2.99,1.44
						c-0.73,0.28-1.76,1.44-2.2,0.27c-0.37-1.04-0.89-2.68,0.58-3.59c1.21-0.7,2.46-1.35,3.74-1.93
						C160.99,29.93,161.14,30.03,161.12,32.57"/>
					<path id="Path_31030" class="st13" d="M150.14,41.65c-2.65,0.45-3.66-0.69-2.74-3.14c0.43-1.11,1.19-2.06,2.18-2.71
						c0.88-0.61,1.83-1.1,2.83-0.33c1,0.77,0.73,1.83,0.47,2.85c-0.34,1.28-1.47,2-2.13,3.04h0.02l-0.53,0.3L150.14,41.65z
						 M152.13,37.13c-0.05-0.4-0.09-1.02-0.82-0.9c-0.92,0.11-1.64,0.86-1.71,1.79c-0.05,0.54,0.26,1.14,0.89,1
						C151.37,38.83,152.18,38.4,152.13,37.13"/>
					<path id="Path_31031" class="st13" d="M121.9,49.89c0.29-0.8,1.17-1.21,1.97-0.92c0.08,0.03,0.16,0.06,0.23,0.11
						c0.9,0.37,1.03,1.21,0.92,2.06c-0.27,2.01-1.64,3.71-3.55,4.4c-0.71,0.33-1.55,0.1-1.99-0.54c-0.58-0.81-0.58-1.89,0-2.7
						c0.47-0.65,0.99-1.27,1.56-1.83c0.12,0.81-0.41,1.87,0.65,2.31c0.59,0.25,1.08-0.34,1.41-0.81c1.1-1.53,0.39-2.06-1.19-2.07"/>
					<path id="Path_31032" class="st16" d="M121.9,49.89c1.58,0,2.29,0.55,1.19,2.07c-0.33,0.46-0.82,1.05-1.41,0.81
						c-1.06-0.44-0.53-1.5-0.65-2.31C121.19,50.13,121.53,49.91,121.9,49.89"/>
					<path id="Path_31033" class="st2" d="M98.68,136.09c0,3.58,0,3.58-3.26,1.96c-1.66-0.83-3.32-1.65-4.96-2.51
						c-0.62-0.33-1.48-0.42-1.56-1.38l3.49-1.36c1.9,1.45,4.03,2.56,6.3,3.3"/>
					<path id="Path_31034" class="st4" d="M98.68,136.09c-2.27-0.74-4.4-1.85-6.29-3.3c0.02-0.9,0.04-1.8,0.06-2.7
						c2.04,0.38,3.96,1.23,5.62,2.48c1.29,0.75,0.46,2.31,0.62,3.51"/>
					<path id="Path_31035" class="st6" d="M92.44,130.11c-0.02,0.9-0.04,1.8-0.06,2.7l-3.49,1.36c-0.96-1.74-0.3-3.62-0.43-5.43
						c-0.05-0.75,0.49-0.85,1.05-0.52C90.52,128.8,91.8,128.95,92.44,130.11"/>
					<path id="Path_31036" class="st2" d="M91.08,142.57c0.47,1.3,1.83,1.28,2.79,1.83c1.56,0.93,3.2,1.72,4.8,2.56
						c-0.23,0.49,0.45,1.95-0.86,1.3c-3.17-1.23-6.17-2.85-8.93-4.82l2.2-0.9"/>
					<path id="Path_31037" class="st6" d="M91.07,142.57l-2.2,0.9c-0.96-1.78-0.31-3.69-0.37-5.53c-0.03-0.68,0.59-0.78,1.12-0.53
						c0.77,0.21,1.47,0.65,2,1.25c-0.18,1.3-0.36,2.6-0.54,3.91"/>
					<path id="Path_31038" class="st3" d="M102.22,151.98l-0.47-0.06c0.02-1.33,0.03-2.67,0.05-4c0.55,0.32,1.69-0.84,1.72,0.43
						S104.44,151.43,102.22,151.98"/>
					<path id="Path_31039" class="st4" d="M57.22,100.24c-0.29,1.22,0.9,1.6,1.41,2.33c3.87,4.91,6.87,10.44,8.88,16.37
						c1.14,3.74,1.72,7.62,1.73,11.53c0.2,5.43-2.46,10.57-7.02,13.53c-3.61,2.11-7.93,2.68-11.97,1.56
						c-6.91-1.76-13.23-5.29-18.36-10.24c-0.86-0.77-1.4-1.97-2.75-2.11l0,0l-0.44-0.44l0,0c0.06-0.36-0.12-0.72-0.44-0.89l0,0
						c-1.9-2.7-3.96-5.31-5.66-8.12c-4.65-6.93-6.89-15.2-6.38-23.54c0.96-10.51,9.09-15.48,19.53-13.12
						c5.82,1.48,11.2,4.38,15.64,8.43c0.55,0.48,0.97,1.16,1.83,1.16c0.42,0.68,0.88,1.32,1.8,1.33H55l0.47,0.47l-0.02-0.02
						l0.47,0.47l-0.02-0.02l0.47,0.47l-0.02-0.02l0.46,0.46l-0.02-0.02l0.46,0.46L57.22,100.24z M27.8,108.84
						c0.07,3.88,1.22,7.66,3.32,10.91c3.29,6.34,9.1,10.99,16.01,12.82c4.13,1.18,8.46-1.12,9.79-5.21
						c0.68-2.04,0.78-4.24,0.29-6.33c-1.71-9.65-8.52-17.6-17.79-20.77c-4.17-1.88-9.07-0.03-10.96,4.14
						C27.84,105.79,27.61,107.32,27.8,108.84"/>
					<path id="Path_31040" class="st14" d="M55.01,98.02c-0.91-0.02-1.37-0.65-1.8-1.33c-0.3-1.51-1.55-2.22-2.6-3.07
						c-1.91-1.54-3.88-3.02-5.82-4.52H44.3l0,0c0-1.1-0.89-1.78-1.34-2.66l4,0.07c1.95,1.78,4.05,3.4,6.26,4.84
						c0.87,0.77,2,1.3,2.18,2.63c-0.49,0-1.03-0.14-1.3,0.47C53.8,95.79,54.61,96.85,55.01,98.02"/>
					<path id="Path_31041" class="st14" d="M39.86,83.85c-0.68,0.15-1.75,0-0.92,1.26l0.48,0.9c-2.31-0.64-4.62-1.28-6.93-1.94
						c-0.7-0.2-1.38-0.6-2.01,0.14c-0.96-0.29-1.85-0.8-2.56-1.51c1.02-0.69,2.23-1.08,3.47-1.1c2.08,0.58,4.2,1.02,6.34,1.31
						c0.73,0.25,1.6,0.25,2.14,0.95"/>
					<path id="Path_31042" class="st10" d="M39.42,86.01l-0.48-0.9c1.76-0.8,2.84,0.4,4.03,1.33c0.46,0.88,1.35,1.55,1.34,2.66
						C42.35,88.74,40.6,87.63,39.42,86.01"/>
					<path id="Path_31043" class="st10" d="M44.31,89.1h0.48C44.63,89.38,44.48,89.49,44.31,89.1"/>
					<path id="Path_31044" class="st4" d="M145.89,157.73c0.6,2.41,1.37,4.78,2.28,7.09c-0.07,0.36,0.1,0.73,0.43,0.91
						c0,0.29,0.02,0.58,0.03,0.87c0.72,3.77,0.61,7.66-0.33,11.38c-1.83,5.7-7.66,9.12-13.53,7.93c-5.72-0.89-11.03-3.51-15.22-7.51
						c-0.69-0.56-1.41-1.07-2.16-1.54l0,0c-0.19-0.33-0.57-0.51-0.94-0.45l-0.84-0.85c0.05-0.39-0.12-0.77-0.45-0.98
						c-0.45-0.71-0.61-1.69-1.73-1.74c-1.59-2.95-3.39-5.78-5.41-8.45l0,0c0.06-0.36-0.12-0.72-0.44-0.89l0,0
						c0.06-0.36-0.12-0.72-0.45-0.89l0,0c0-0.86,0.14-1.78-0.89-2.23l0,0c-0.19-3.02-1.31-5.84-1.5-8.91
						c-0.6-9.56,5.27-17.05,15.62-14.75c3.56,0.68,6.93,2.11,9.89,4.19c0.52,0.44,1.16,0.7,1.83,0.76c0.81,1.78,3.17,1.83,4.03,3.56
						c0.56,0.82,1.1,1.68,2.22,1.78l0,0l0.44,0.44l0,0l0.44,0.44l0,0c-0.06,0.36,0.11,0.72,0.44,0.9l6.23,8.92 M118.26,165.27
						L118.26,165.27c2.61,5.07,7.43,8.64,13.05,9.67c3.5,0.81,7-1.37,7.81-4.87c0.16-0.68,0.21-1.39,0.14-2.09
						c-0.06-5.92-2.66-11.53-7.15-15.39c-0.06-0.12-0.17-0.21-0.3-0.26c-2.3-2.43-5.28-4.09-8.55-4.76
						c-3.44-1.11-7.14,0.78-8.25,4.22c-0.04,0.12-0.07,0.24-0.1,0.36c-1.01,4.67,0.24,9.54,3.36,13.15"/>
					<path id="Path_31045" class="st3" d="M137.44,128.3c1.4,0.68,3.07,0.84,4.1,2.2c-1.12,0.86-1.93,2.05-2.33,3.4
						c-0.59,1.21-1.34,1.32-2.47,1.64c-1.99,0.56-4.14-0.27-6,0.88h-3.24c0.16,0.91,1.1,1.29,1.1,2.15
						c-1.54-0.32-2.95-1.09-4.05-2.22l-0.46-0.5l0,0c-0.12-0.78-0.92-1.9,0.85-1.77c2.15-0.46,4.33-0.73,6.52-0.81
						c4.05,0.19,5.13-1.47,5.97-4.99"/>
					<path id="Path_31046" class="st14" d="M128.6,138.58c0-0.86-0.94-1.24-1.1-2.15h3.24c0.43,0.73,1.23,1.03,1.83,1.54
						c1.69,1.43,3.96,2.28,4.84,4.58c-0.6,0-0.86,0.32-0.82,0.9c0,0.44,0,0.89-0.03,1.33l-0.45,0.46c-0.85-1.74-3.21-1.78-4.03-3.56
						c-0.66-1.61-2.31-2.08-3.49-3.1"/>
					<path id="Path_31047" class="st14" d="M124.95,134.09c-1.78-0.13-0.97,0.99-0.85,1.77c-1.75-0.5-3.52-0.95-5.25-1.51
						c-0.78-0.21-1.59-0.29-2.39-0.22c-0.6-0.2-1.3-0.23-1.56-1.1c1.21-0.51,2.52-0.76,3.83-0.73
						C120.85,132.72,122.94,133.32,124.95,134.09"/>
					<path id="Path_31048" class="st4" d="M105.37,136.78c0.26-3.59,0.7-7.16,1.32-10.7c0.53,2.2,0.68,4.47,0.44,6.71
						c0.08,0.88,0,1.77,0,2.65c-0.3,0.74-0.98,1.26-1.77,1.34"/>
					<path id="Path_31049" class="st3" d="M103.6,140.31c0.12-1.13,0.75-2.13,1.72-2.73c0.73,0.18,1.97,0.02,1.83,0.93
						c-0.08,1.1-1.03,1.92-2.12,1.85c-0.05,0-0.1-0.01-0.15-0.02c-0.43-0.05-0.86-0.03-1.3-0.05"/>
					<path id="Path_31050" class="st14" d="M124.08,135.85l0.46,0.49L124.08,135.85"/>
					<path id="Path_31051" class="st15" d="M158.83,66.39c-8.87,0.31-17.71-0.4-26.57-0.58c-4.48-0.09-8.99-0.13-13.48-0.34
						c0-2.17,0-4.34,0-6.51c4.04-1.66,7.98-3.56,11.8-5.68c9.46-4.61,18.85-9.37,28.27-14.07V66.4"/>
					<path id="Path_31052" class="st6" d="M150.24,41.67l0.53-0.3C150.7,41.67,150.54,41.78,150.24,41.67"/>
					<path id="Path_31053" class="st7" d="M28.26,131.87c0.32,0.17,0.5,0.53,0.44,0.89C28.38,132.59,28.2,132.23,28.26,131.87"/>
					<path id="Path_31054" class="st7" d="M28.72,132.76l0.44,0.44L28.72,132.76"/>
					<path id="Path_31055" class="st7" d="M115.16,174.59c0.33,0.21,0.5,0.59,0.45,0.98C115.28,175.36,115.11,174.97,115.16,174.59"
						/>
					<path id="Path_31056" class="st7" d="M116.45,176.42c0.38-0.06,0.75,0.12,0.94,0.45C117.02,176.91,116.66,176.73,116.45,176.42
						"/>
					<path id="Path_31057" class="st7" d="M106.24,160.38c1.03,0.45,0.9,1.37,0.89,2.23C106.48,162.07,106.15,161.23,106.24,160.38"
						/>
					<path id="Path_31058" class="st7" d="M107.58,163.5c0.32,0.17,0.5,0.53,0.44,0.89C107.71,164.22,107.53,163.86,107.58,163.5"/>
					<path id="Path_31059" class="st7" d="M107.14,162.61c0.33,0.17,0.51,0.53,0.45,0.89C107.27,163.33,107.09,162.97,107.14,162.61
						"/>
					<path id="Path_31060" class="st12" d="M109.8,65.07c1.8-0.03,3.59,0.12,5.36,0.43c0.27,0.99,0.43,2.02,0.47,3.04
						c0.22,1.13-0.42,2.25-1.51,2.62c-1.2,0.36-1.91,1.59-1.6,2.81c-0.01,14.07-0.02,28.13-0.02,42.19
						c-0.08,0.81,0.08,1.63,0.47,2.35c-0.09,0.11-0.2,0.22-0.31,0.31c-2.63,1.52-2.85,1.4-2.85-1.61
						C109.79,99.83,109.79,82.45,109.8,65.07"/>
					<path id="Path_31061" class="st16" d="M115.47,56.96c-1.47,0.7-2.93,1.36-4.37,2.12c-1.1,0.58-1.29,0.26-1.4-0.88
						c-0.44-1.67,0.55-3.38,2.21-3.82c0.04-0.01,0.08-0.02,0.12-0.03c1.18-0.37,2.12-1.36,3.45-1.36v3.97"/>
					<path id="Path_31062" class="st10" d="M120.51,73.96c-0.65-0.33-1.98,0.77-1.95-0.87c0-0.48,0.08-1.38,0.93-1.25
						C120.74,72.02,120.46,73.11,120.51,73.96L120.51,73.96"/>
					<path id="Path_31063" class="st8" d="M137.41,142.54c-0.87-2.3-3.14-3.15-4.84-4.58c-0.61-0.51-1.41-0.8-1.83-1.54
						c1.85-1.15,4.01-0.32,6-0.88c1.13-0.32,1.89-0.43,2.47-1.64c0.4-1.35,1.22-2.54,2.33-3.4c3.88,1.55,7.26,4.16,9.75,7.51
						c-0.31,1.62-1.67,2.54-2.49,3.82c-0.41,0.9-1.41,1.38-2.37,1.14C143.45,142.55,140.43,142.41,137.41,142.54"/>
					<path id="Path_31064" class="st8" d="M124.95,134.09c-2.02-0.77-4.11-1.37-6.23-1.79c0.03-0.85,0.73-1.06,1.33-1.3
						c1.62-0.64,2.68-2.21,2.66-3.95c4.64-1.11,9.51-0.82,13.99,0.81c0.25,0.13,0.5,0.27,0.73,0.43c-0.84,3.51-1.92,5.19-5.97,4.99
						c-2.19,0.07-4.38,0.34-6.52,0.81"/>
					<path id="Path_31065" class="st3" d="M137.41,142.54c3.01-0.13,6.03,0.01,9.02,0.43c0.97,0.25,1.97-0.23,2.38-1.14
						c0.82-1.28,2.2-2.2,2.49-3.82c1.36,0.7,2.45,1.81,3.13,3.18c-0.64,0.6-1.22,1.26-1.72,1.98c-1.59,2.65-4.69,4.02-7.72,3.41
						c-0.88-0.04-1.77,0-2.66,0c-0.79-0.46-1.72-0.6-2.61-0.39c-1.02-0.94-1.22-2.81-3.11-2.76c-0.04-0.58,0.21-0.9,0.82-0.9"/>
					<path id="Path_31066" class="st8" d="M121.87,127.1c-0.59,1.81-2.52,1.83-3.76,2.76c-0.19,0.04-0.39-0.02-0.53-0.15
						c-0.27-1.7-1.97-2.85-1.93-4.61c0.04-1.76-0.39-3.49-0.48-5.25c2.15-0.41,3.17,0.69,3.54,2.65
						C118.8,125.99,119.07,126.41,121.87,127.1"/>
					<path id="Path_31067" class="st3" d="M125.65,107.65c0.62-0.41,0.99-0.06,1.36,0.13c5.23,2.61,10.46,5.22,15.68,7.84
						c0.52,0.26,1.59,0.42,1.13,1.26c-0.37,0.68-1.01-0.09-1.5-0.34c-5.21-2.61-10.41-5.22-15.61-7.84
						C126.29,108.5,125.68,108.41,125.65,107.65"/>
					<path id="Path_31068" class="st3" d="M143.7,114.48l-18.18-9.11l0.44-0.86c6.1,2.99,12.25,5.88,18.19,9.2L143.7,114.48"/>
					<path id="Path_31069" class="st3" d="M143.7,122.98l-17.95-8.99l0.44-0.85l17.98,8.99L143.7,122.98"/>
					<path id="Path_31070" class="st3" d="M143.67,125.83l-17.83-8.9l0.43-0.86l17.84,8.9L143.67,125.83"/>
					<path id="Path_31071" class="st3" d="M143.57,120.03l-17.95-8.98l0.46-0.88l17.99,9l-0.49,0.85"/>
					<path id="Path_31072" class="st16" d="M205.92,129.18c-0.44-0.73-2,0.56-1.97-0.77c-0.02-1.47,1.14-2.69,2.61-2.74
						c1.17-0.11,1.36,0.66,1.28,1.54C207.74,128.31,207.43,129.25,205.92,129.18"/>
					<path id="Path_31073" class="st16" d="M186.6,138.65c-0.45-0.08-1.06-0.23-1.24,0.17c-0.59,1.29-0.97,0.55-1.43-0.05
						c-0.41-0.52-0.03-1.34,0.73-1.83c0.49-0.31,0.82-0.86,1.32-1.15c0.59-0.35,1.21-0.94,1.99-0.33c0.78,0.61,0.64,1.36,0.33,2.17
						c-0.32,0.81-0.62,1.56-1.7,1"/>
					<path id="Path_31074" class="st3" d="M54.1,94.46c0.27-0.61,0.82-0.45,1.31-0.47l6.36-0.02c1.07,1.21,1.95,2.57,2.62,4.03
						c-1.1,0.95-2.41,0.27-3.61,0.49c-0.82-0.42-1.75-0.58-2.66-0.45C56.85,96.78,56.03,95,54.1,94.46"/>
					<path id="Path_31075" class="st4" d="M136.59,143.45c1.9-0.05,2.1,1.83,3.11,2.76c-0.12,0.58,0.75,1.18-0.02,1.75l-0.46-0.04
						l0,0l-0.44-0.44l0,0l-0.44-0.44l0,0c-0.1-1.13-1-1.63-1.76-2.24l0.02-1.33"/>
					<path id="Path_31076" class="st12" d="M139.23,147.91l0.46,0.04c0,0.29,0,0.57-0.02,0.86
						C139.34,148.64,139.16,148.27,139.23,147.91"/>
					<path id="Path_31077" class="st7" d="M148.59,165.73c-0.32-0.18-0.5-0.55-0.43-0.91C148.71,164.93,149.26,165.04,148.59,165.73
						"/>
					<path id="Path_31078" class="st7" d="M58.12,98.02c0.91-0.13,1.84,0.03,2.66,0.45c1.36,1.87,2.76,3.72,4.03,5.65
						c0.33,0.5,1.63,1.31,0,1.92c-1.64-1.67-3.14-3.49-4.47-5.42c-0.61-0.83-1.35-1.55-2.2-2.14v-0.45"/>
					<path id="Path_31079" class="st10" d="M58.12,98.02v0.45c-0.53,0.47,1.03,2.02-0.9,1.77l0,0l-0.46-0.46l0.02,0.02l-0.46-0.46
						l0.02,0.02l-0.47-0.47l0.02,0.02l-0.47-0.47l0.02,0.02L54.97,98h0.02c-0.39-1.17-1.2-2.23-0.9-3.57
						c1.92,0.54,2.74,2.31,4.03,3.57"/>
					<path id="Path_31080" class="st16" d="M152.12,37.13c0.05,1.27-0.76,1.7-1.64,1.89c-0.63,0.14-0.95-0.46-0.89-1
						c0.07-0.93,0.78-1.68,1.71-1.79C152.03,36.11,152.07,36.73,152.12,37.13"/>
					<path id="Path_31081" class="st2" d="M27.8,108.84c-0.57-4.54,2.65-8.68,7.19-9.24c1.51-0.19,3.05,0.04,4.44,0.67
						c9.27,3.17,16.08,11.13,17.79,20.77c0.49,2.1,0.39,4.29-0.29,6.34c-1.33,4.09-5.66,6.39-9.8,5.21
						c-6.9-1.83-12.71-6.49-16.01-12.82c-2.11-3.26-3.26-7.03-3.32-10.91 M50.54,109.62L50.54,109.62
						c-2.91-4.72-7.82-7.84-13.33-8.47c-4.09-0.41-7.73,2.58-8.14,6.67c-0.04,0.38-0.05,0.76-0.03,1.14
						c0.06,3.64,1.07,7.2,2.93,10.33c2.84,5.62,7.82,9.87,13.82,11.79c3.7,1.59,8-0.12,9.59-3.83c0.38-0.88,0.58-1.82,0.59-2.77
						c0.14-1.38,0.09-2.78-0.13-4.15c-0.59-4.04-2.44-7.8-5.3-10.72"/>
					<path id="Path_31082" class="st14" d="M56.33,99.35l0.46,0.46L56.33,99.35"/>
					<path id="Path_31083" class="st14" d="M55.89,98.9l0.47,0.47L55.89,98.9"/>
					<path id="Path_31084" class="st14" d="M55.44,98.45l0.47,0.47L55.44,98.45"/>
					<path id="Path_31085" class="st14" d="M54.99,98.01l0.47,0.47L54.99,98.01"/>
					<path id="Path_31086" class="st14" d="M56.77,99.79l0.46,0.46L56.77,99.79"/>
					<path id="Path_31087" class="st6" d="M131.82,152.35c0.13,0.05,0.23,0.14,0.3,0.26c0.15,1.47-0.18,2.18-1.71,1.13
						c-0.44-0.28-0.91-0.51-1.4-0.67c-1.86-0.93-4.11-0.17-5.04,1.68c-0.39,0.78-0.5,1.68-0.3,2.53c0.74,4.25,3.81,7.71,7.94,8.96
						c1.81,0.59,3.75-0.39,4.34-2.2c0.22-0.66,0.23-1.38,0.03-2.05c-0.32-1.44-0.83-2.84-1.25-4.25l0.11-0.1
						c1.84,1.9,2.99,4.37,3.24,7c1.38,3.56-0.39,7.55-3.94,8.93c-2.03,0.79-4.31,0.57-6.16-0.59c-3.24-1.48-6.07-3.74-8.21-6.6
						c-0.43-0.5-0.69-1.16-1.5-1.1l0,0c0.16-0.88-0.37-1.55-0.69-2.29c-1.33-2.57-2.02-5.43-2.01-8.32
						c0.04-3.33,2.75-6.01,6.08-6.01c2.88,0.13,5.66,1.13,7.98,2.85C130.32,152,130.91,152.54,131.82,152.35"/>
					<path id="Path_31088" class="st2" d="M134.72,157.75c0.42,1.41,0.93,2.81,1.25,4.25c0.54,1.82-0.5,3.74-2.32,4.28
						c-0.67,0.2-1.39,0.19-2.05-0.03c-4.13-1.25-7.2-4.71-7.94-8.96c-0.47-2.02,0.79-4.04,2.81-4.51c0.85-0.2,1.74-0.09,2.52,0.3
						c0.49,0.17,0.96,0.39,1.4,0.67c1.54,1.05,1.86,0.33,1.71-1.13c4.48,3.86,7.09,9.47,7.15,15.39c0.34,3.58-2.28,6.76-5.86,7.1
						c-0.7,0.07-1.4,0.02-2.09-0.14c-5.61-1.02-10.43-4.6-13.05-9.67c0.82-0.05,1.07,0.6,1.5,1.1c2.14,2.85,4.96,5.12,8.2,6.6
						c3.23,2.02,7.49,1.05,9.51-2.19c1.16-1.85,1.37-4.13,0.59-6.16c-0.25-2.63-1.39-5.1-3.24-7c0.07-1.01-0.63-1.91-1.62-2.09
						C133.48,156.42,134.01,157.18,134.72,157.75 M133.43,162.62c-0.14,0.04-0.29,0.07-0.43,0.08c-0.66,0.02-1.51-0.11-1.19,0.97
						c0.19,0.63,0.7,1.3,1.47,1.07c0.95-0.29,0.11-0.97,0.13-1.47C133.4,163.05,133.43,162.83,133.43,162.62c0.8,0,1.6,0,1.26-1.18
						c-0.16-0.55-0.73-1.01-1.15-0.83c-1.24,0.52-0.16,1.33-0.1,2.02 M127.96,155.45c-0.16-0.64-0.69-1.11-1.33-1.22
						c-0.56-0.05-0.79,0.4-0.62,0.87c0.16,0.66,0.73,1.14,1.41,1.18C127.84,156.28,128.02,155.91,127.96,155.45 M126.61,159.97
						c-0.45,0.07-0.73,0.31-0.64,0.73c0.08,0.68,0.63,1.21,1.32,1.26c0.34,0.01,0.62-0.25,0.63-0.58c0-0.05,0-0.1-0.01-0.15
						C127.78,160.58,127.26,160.07,126.61,159.97 M130.75,155.75c-0.18-0.68-0.51-1.28-1.26-1.36c-0.5-0.05-0.55,0.45-0.49,0.81
						c0.04,0.69,0.56,1.26,1.25,1.36C130.74,156.63,130.73,156.13,130.75,155.75 M130.75,164.01c-0.05-0.73-0.35-1.27-1.1-1.36
						c-0.41-0.05-0.66,0.25-0.61,0.69c0.07,0.59,0.48,1.08,1.04,1.25c0.47,0.17,0.61-0.19,0.68-0.58 M126.07,158.55
						c0.42-0.04,0.69-0.27,0.62-0.7c-0.03-0.68-0.57-1.22-1.24-1.26c-0.47-0.03-0.5,0.44-0.46,0.8c0.03,0.6,0.5,1.09,1.1,1.15
						 M133.7,158.47c-0.16-0.57-0.6-1.02-1.17-1.18c-0.42-0.11-0.78,0.11-0.7,0.55c0.03,0.61,0.49,1.11,1.1,1.18
						C133.32,159.05,133.65,158.94,133.7,158.47"/>
					<path id="Path_31089" class="st2" d="M131.81,152.35c-0.9,0.18-1.49-0.37-2.2-0.83c-2.32-1.73-5.1-2.72-7.98-2.85
						c-3.33,0-6.04,2.68-6.08,6.01c-0.01,2.9,0.68,5.75,2.01,8.32c0.32,0.73,0.85,1.41,0.69,2.29c-3.13-3.61-4.37-8.48-3.36-13.15
						c0.92-3.5,4.5-5.6,8-4.68c0.12,0.03,0.24,0.07,0.36,0.1c3.27,0.68,6.26,2.34,8.55,4.76"/>
					<path id="Path_31090" class="st12" d="M136.57,144.78c0.76,0.61,1.66,1.1,1.77,2.24c-1.14-0.1-1.66-0.96-2.22-1.78
						L136.57,144.78"/>
					<path id="Path_31091" class="st12" d="M138.78,147.47l0.44,0.44L138.78,147.47"/>
					<path id="Path_31092" class="st12" d="M138.32,147.02l0.44,0.44L138.32,147.02"/>
					<path id="Path_31093" class="st6" d="M50.54,109.61c2.86,2.92,4.71,6.68,5.3,10.72c0.23,1.37,0.27,2.77,0.13,4.15
						c-0.06,4.03-3.38,7.25-7.41,7.19c-0.95-0.01-1.89-0.22-2.77-0.59c-6-1.92-10.98-6.17-13.82-11.79
						c-1.86-3.13-2.87-6.69-2.93-10.33c-0.22-4.1,2.92-7.61,7.03-7.83c0.38-0.02,0.76-0.01,1.14,0.03
						c5.51,0.63,10.42,3.75,13.33,8.47c-1.97-0.81-3.48-2.41-5.5-3.2c-2.1-1.13-4.71-0.35-5.84,1.75c-0.45,0.84-0.61,1.8-0.46,2.74
						c0.53,5.05,3.82,9.39,8.53,11.27c1.98,1.1,4.48,0.39,5.58-1.59c0.22-0.4,0.37-0.83,0.45-1.28c0.35-1.74,0.11-3.55-0.69-5.13
						c-0.54-1.6-2.01-2.77-2.08-4.57"/>
					<path id="Path_31094" class="st8" d="M127.97,155.46c0.06,0.48-0.12,0.83-0.54,0.83c-0.68-0.03-1.26-0.51-1.42-1.18
						c-0.17-0.48,0.06-0.92,0.62-0.87C127.28,154.34,127.8,154.82,127.97,155.46"/>
					<path id="Path_31095" class="st8" d="M133.43,162.61c0,0.22-0.03,0.44-0.04,0.65c-0.02,0.51,0.82,1.18-0.13,1.47
						c-0.75,0.23-1.26-0.44-1.47-1.07c-0.32-1.1,0.54-0.95,1.19-0.97C133.14,162.67,133.28,162.64,133.43,162.61L133.43,162.61z"/>
					<path id="Path_31096" class="st8" d="M126.61,159.98c0.65,0.11,1.17,0.61,1.3,1.26c0.07,0.33-0.14,0.65-0.47,0.72
						c-0.05,0.01-0.1,0.01-0.15,0.01c-0.68-0.05-1.23-0.58-1.32-1.26C125.87,160.29,126.15,160.05,126.61,159.98"/>
					<path id="Path_31097" class="st8" d="M130.75,155.77c-0.03,0.37,0,0.87-0.51,0.81c-0.69-0.09-1.21-0.67-1.25-1.36
						c-0.05-0.37,0-0.86,0.49-0.81C130.25,154.49,130.59,155.08,130.75,155.77"/>
					<path id="Path_31098" class="st8" d="M133.44,162.61c-0.07-0.69-1.15-1.5,0.1-2.02c0.43-0.18,0.99,0.27,1.15,0.83
						c0.33,1.17-0.47,1.18-1.26,1.18l0,0"/>
					<path id="Path_31099" class="st8" d="M130.75,164.02c-0.07,0.39-0.21,0.75-0.68,0.58c-0.57-0.17-0.98-0.66-1.04-1.25
						c-0.05-0.44,0.2-0.73,0.61-0.69c0.77,0.09,1.06,0.64,1.1,1.36"/>
					<path id="Path_31100" class="st8" d="M126.06,158.56c-0.6-0.06-1.07-0.55-1.1-1.15c-0.04-0.37,0-0.82,0.46-0.8
						c0.68,0.04,1.21,0.58,1.24,1.26c0.07,0.43-0.19,0.65-0.62,0.7"/>
					<path id="Path_31101" class="st8" d="M133.67,158.47c-0.06,0.47-0.37,0.59-0.77,0.55c-0.6-0.07-1.07-0.57-1.1-1.18
						c-0.08-0.43,0.28-0.65,0.7-0.55C133.07,157.46,133.51,157.91,133.67,158.47"/>
					<path id="Path_31102" class="st6" d="M134.72,157.75c-0.71-0.57-1.23-1.33-1.51-2.2c0.99,0.18,1.69,1.08,1.62,2.09l-0.11,0.09"
						/>
					<path id="Path_31103" class="st2" d="M50.54,109.6c0.07,1.81,1.54,2.97,2.08,4.57c0.8,1.58,1.04,3.39,0.69,5.13
						c-0.39,2.23-2.52,3.72-4.76,3.33c-0.45-0.08-0.88-0.23-1.28-0.45c-4.71-1.88-8-6.22-8.53-11.27c-0.39-2.35,1.2-4.57,3.55-4.96
						c0.94-0.16,1.91,0.01,2.75,0.46C47.06,107.18,48.56,108.78,50.54,109.6L50.54,109.6 M42.41,112.26
						c-0.25-0.73-0.5-1.56-1.47-1.67c-0.41-0.1-0.81,0.15-0.91,0.56c-0.03,0.13-0.03,0.26,0.01,0.39c0.2,0.79,0.56,1.56,1.58,1.59
						C42.16,113.14,42.44,112.86,42.41,112.26 M52.15,117.06c-0.29-0.76-0.57-1.55-1.56-1.63c-0.51-0.04-0.92,0.21-0.84,0.75
						c0.14,0.82,0.47,1.61,1.4,1.78C51.74,118.08,52.09,117.69,52.15,117.06 M47.3,119.41c-0.33-0.73-0.73-1.47-1.63-1.6
						c-0.37-0.05-0.71,0.21-0.76,0.58c-0.01,0.1,0,0.2,0.02,0.29c0.19,0.81,0.56,1.57,1.58,1.61c0.53,0.02,0.82-0.27,0.8-0.87
						 M45.8,108.27c-0.55,0.02-0.99,0.16-0.81,0.78c0.23,0.8,0.59,1.59,1.53,1.7c0.4,0.04,0.76-0.25,0.81-0.65
						c0.01-0.07,0-0.14-0.01-0.21C47.25,109.06,46.62,108.39,45.8,108.27 M49.07,118.13c-0.4,0-0.73,0.33-0.74,0.73
						c0,0.07,0.01,0.14,0.03,0.2c0.05,0.83,0.7,1.5,1.53,1.58c0.56,0.06,0.69-0.45,0.63-0.91c-0.06-0.81-0.67-1.47-1.47-1.6
						 M50.53,112.72c-0.03-0.74-0.63-1.32-1.37-1.33c-0.53-0.03-0.88,0.27-0.77,0.8c0.13,0.82,0.77,1.48,1.59,1.63
						C50.54,113.91,50.54,113.28,50.53,112.72 M42.41,107.88c-0.4-0.03-0.76,0.27-0.79,0.67c0,0.03,0,0.07,0,0.1
						c-0.03,0.76,0.46,1.44,1.18,1.66c0.59,0.21,0.98-0.26,0.96-0.85C43.69,108.7,43.15,108.07,42.41,107.88 M43.77,116.39
						c-0.08-0.81-0.66-1.47-1.44-1.67c-0.6-0.14-0.73,0.34-0.71,0.8c0.04,0.75,0.56,1.38,1.29,1.58
						C43.4,117.24,43.74,117,43.77,116.39"/>
					<path id="Path_31104" class="st8" d="M42.42,112.26c0.03,0.6-0.25,0.88-0.78,0.86c-1.01-0.04-1.38-0.8-1.58-1.59
						c-0.12-0.4,0.11-0.82,0.5-0.94c0.13-0.04,0.27-0.04,0.4-0.01C41.92,110.7,42.17,111.54,42.42,112.26"/>
					<path id="Path_31105" class="st8" d="M52.16,117.06c-0.05,0.63-0.4,1.02-1,0.91c-0.93-0.17-1.26-0.96-1.4-1.78
						c-0.09-0.54,0.32-0.79,0.83-0.75C51.59,115.51,51.86,116.3,52.16,117.06"/>
					<path id="Path_31106" class="st8" d="M47.31,119.41c0.03,0.6-0.27,0.89-0.8,0.87c-1.01-0.04-1.38-0.8-1.58-1.61
						c-0.11-0.36,0.09-0.73,0.44-0.84c0.09-0.03,0.19-0.04,0.29-0.02c0.88,0.15,1.3,0.88,1.63,1.6"/>
					<path id="Path_31107" class="st8" d="M45.8,108.27c0.82,0.12,1.45,0.79,1.52,1.62c0.07,0.4-0.19,0.78-0.59,0.85
						c-0.07,0.01-0.14,0.02-0.21,0.01c-0.95-0.12-1.3-0.9-1.53-1.7C44.81,108.43,45.25,108.29,45.8,108.27"/>
					<path id="Path_31108" class="st8" d="M49.07,118.13c0.8,0.14,1.4,0.79,1.47,1.6c0.05,0.45-0.08,0.97-0.64,0.91
						c-0.83-0.08-1.48-0.75-1.53-1.58c-0.11-0.39,0.11-0.79,0.5-0.91C48.94,118.14,49.01,118.13,49.07,118.13"/>
					<path id="Path_31109" class="st8" d="M50.54,112.72c0,0.56,0.02,1.19-0.54,1.1c-0.82-0.15-1.46-0.8-1.59-1.63
						c-0.11-0.53,0.24-0.83,0.77-0.8C49.91,111.4,50.51,111.98,50.54,112.72"/>
					<path id="Path_31110" class="st8" d="M42.42,107.88c0.74,0.19,1.29,0.82,1.35,1.59c0.02,0.59-0.37,1.06-0.96,0.85
						c-0.73-0.22-1.21-0.9-1.18-1.66c-0.03-0.4,0.28-0.75,0.69-0.78C42.35,107.88,42.39,107.88,42.42,107.88"/>
					<path id="Path_31111" class="st8" d="M43.79,116.39c-0.03,0.61-0.37,0.86-0.87,0.7c-0.72-0.19-1.24-0.83-1.29-1.58
						c-0.04-0.46,0.11-0.94,0.71-0.8C43.13,114.92,43.71,115.59,43.79,116.39"/>
				</g>
			</g>
		</g>
	</g>
</g>
</svg>
